/* XPM */
static char * close_button_xpm[] = {
"24 32 476 2",
"  	c None",
". 	c #65625E",
"+ 	c #64625D",
"@ 	c #63615C",
"# 	c #62605B",
"$ 	c #625F5B",
"% 	c #625F5C",
"& 	c #63605D",
"* 	c #63615D",
"= 	c #64615D",
"- 	c #65625D",
"; 	c #66635E",
"> 	c #65635D",
", 	c #64625C",
"' 	c #625F5A",
") 	c #615E5A",
"! 	c #605E59",
"~ 	c #605D58",
"{ 	c #605D59",
"] 	c #615F5B",
"^ 	c #666460",
"/ 	c #6D6C69",
"( 	c #757370",
"_ 	c #787674",
": 	c #757270",
"< 	c #6E6D69",
"[ 	c #686561",
"} 	c #62605A",
"| 	c #5D5A55",
"1 	c #5C5A55",
"2 	c #5C5954",
"3 	c #676662",
"4 	c #6B6A67",
"5 	c #676766",
"6 	c #636160",
"7 	c #5E5D5B",
"8 	c #5E5D5C",
"9 	c #62615F",
"0 	c #686766",
"a 	c #6C6A67",
"b 	c #686662",
"c 	c #5D5B55",
"d 	c #5E5B55",
"e 	c #585550",
"f 	c #5E5C58",
"g 	c #656360",
"h 	c #676664",
"i 	c #636261",
"j 	c #6A6767",
"k 	c #6F6C6B",
"l 	c #706C6C",
"m 	c #646361",
"n 	c #686764",
"o 	c #5F5C57",
"p 	c #595651",
"q 	c #585650",
"r 	c #57554F",
"s 	c #56544E",
"t 	c #54524C",
"u 	c #54514C",
"v 	c #595852",
"w 	c #646260",
"x 	c #615D5D",
"y 	c #615B5C",
"z 	c #6E6767",
"A 	c #7B7574",
"B 	c #837E7C",
"C 	c #847D7D",
"D 	c #7B7575",
"E 	c #6F6768",
"F 	c #625C5C",
"G 	c #625E5E",
"H 	c #646261",
"I 	c #63605C",
"J 	c #5A5753",
"K 	c #54514B",
"L 	c #53514B",
"M 	c #53504A",
"N 	c #52504A",
"O 	c #514F49",
"P 	c #504E48",
"Q 	c #5F5C59",
"R 	c #64625F",
"S 	c #5F5958",
"T 	c #5A4E4C",
"U 	c #6D5858",
"V 	c #917B7B",
"W 	c #B39E9D",
"X 	c #C5B1B0",
"Y 	c #B29E9D",
"Z 	c #907B7A",
"` 	c #6E5758",
" .	c #5D4D4E",
"..	c #625959",
"+.	c #64625E",
"@.	c #5D5C57",
"#.	c #514E48",
"$.	c #4E4C46",
"%.	c #4E4B45",
"&.	c #4D4B45",
"*.	c #4D4A44",
"=.	c #4B4943",
"-.	c #55524D",
";.	c #63615E",
">.	c #635B5B",
",.	c #5E4948",
"'.	c #663D3E",
").	c #8D5657",
"!.	c #B57D7D",
"~.	c #CC9897",
"{.	c #D5A5A2",
"].	c #D4A5A2",
"^.	c #CB9896",
"/.	c #B27C7B",
"(.	c #8B5556",
"_.	c #5F484A",
":.	c #635C5B",
"<.	c #62605E",
"[.	c #494740",
"}.	c #494640",
"|.	c #48463F",
"1.	c #484640",
"2.	c #5A5853",
"3.	c #615E5D",
"4.	c #645253",
"5.	c #653939",
"6.	c #7E3232",
"7.	c #A44746",
"8.	c #BD5D5B",
"9.	c #C86E6A",
"0.	c #CC746F",
"a.	c #CA746E",
"b.	c #C66D68",
"c.	c #BA5C58",
"d.	c #A44546",
"e.	c #7F3233",
"f.	c #683A3B",
"g.	c #665453",
"h.	c #615E5C",
"i.	c #585652",
"j.	c #46443D",
"k.	c #45433C",
"l.	c #45423C",
"m.	c #46433D",
"n.	c #5F5E5A",
"o.	c #605857",
"p.	c #6F4D4F",
"q.	c #732A2C",
"r.	c #982A2B",
"s.	c #B23733",
"t.	c #C04540",
"u.	c #C6534B",
"v.	c #C95850",
"w.	c #C8594F",
"x.	c #C6524A",
"y.	c #BE453F",
"z.	c #B23734",
"A.	c #982B2B",
"B.	c #762B2D",
"C.	c #724E4F",
"D.	c #625855",
"E.	c #424039",
"F.	c #424038",
"G.	c #423F38",
"H.	c #42403A",
"I.	c #43413A",
"J.	c #62615C",
"K.	c #635351",
"L.	c #7D4A4C",
"M.	c #832524",
"N.	c #AC302E",
"O.	c #C03C35",
"P.	c #CB4A43",
"Q.	c #D2584F",
"R.	c #D65E57",
"S.	c #D66056",
"T.	c #D35950",
"U.	c #CD4C44",
"V.	c #C43D38",
"W.	c #AF302E",
"X.	c #862524",
"Y.	c #7E4A4B",
"Z.	c #635250",
"`.	c #5F5E59",
" +	c #3F3D36",
".+	c #403E37",
"++	c #3E3C35",
"@+	c #675352",
"#+	c #884D4F",
"$+	c #932D2C",
"%+	c #BC3E38",
"&+	c #D15047",
"*+	c #DB6057",
"=+	c #E26D64",
"-+	c #E6756C",
";+	c #E7766C",
">+	c #E46F65",
",+	c #DE625A",
"'+	c #D45249",
")+	c #BE3F39",
"!+	c #952D2B",
"~+	c #894E4E",
"{+	c #675251",
"]+	c #5C5B56",
"^+	c #3A3831",
"/+	c #3B3931",
"(+	c #3C3A32",
"_+	c #3D3B33",
":+	c #39372F",
"<+	c #585751",
"[+	c #695957",
"}+	c #8D5555",
"|+	c #9F3F3B",
"1+	c #C64C44",
"2+	c #DE645B",
"3+	c #E9746C",
"4+	c #F18079",
"5+	c #F38880",
"6+	c #F38980",
"7+	c #F2827A",
"8+	c #EC766E",
"9+	c #E2665D",
"0+	c #C84D45",
"a+	c #A13F3B",
"b+	c #8C5555",
"c+	c #575550",
"d+	c #37352E",
"e+	c #38362F",
"f+	c #393730",
"g+	c #393830",
"h+	c #36352D",
"i+	c #36342C",
"j+	c #4C4B45",
"k+	c #675E5C",
"l+	c #875D5C",
"m+	c #A3524F",
"n+	c #C5554D",
"o+	c #E57269",
"p+	c #F2857B",
"q+	c #F79188",
"r+	c #F7998F",
"s+	c #F8998F",
"t+	c #F69288",
"u+	c #F3867D",
"v+	c #E8746A",
"w+	c #C8574F",
"x+	c #A75450",
"y+	c #885E5D",
"z+	c #675F5C",
"A+	c #4A4A43",
"B+	c #33322B",
"C+	c #34332B",
"D+	c #35332C",
"E+	c #33312A",
"F+	c #323129",
"G+	c #3E3D36",
"H+	c #5D5B56",
"I+	c #7C6562",
"J+	c #9C615E",
"K+	c #BC5C57",
"L+	c #DD726A",
"M+	c #F28D85",
"N+	c #F89D94",
"O+	c #F9A59C",
"P+	c #FAA69C",
"Q+	c #F79F95",
"R+	c #F39087",
"S+	c #E0746D",
"T+	c #BF5D58",
"U+	c #A0625F",
"V+	c #7D6462",
"W+	c #5C5A56",
"X+	c #3C3C35",
"Y+	c #302F28",
"Z+	c #302F29",
"`+	c #313029",
" @	c #323029",
".@	c #2F2E26",
"+@	c #32312A",
"@@	c #4A4943",
"#@	c #69605D",
"$@	c #8B6B68",
"%@	c #A76A64",
"&@	c #C16F68",
"*@	c #D8847B",
"=@	c #E7998F",
"-@	c #EDA69A",
";@	c #EEA69B",
">@	c #E79B90",
",@	c #DA877E",
"'@	c #C4726B",
")@	c #AA6B67",
"!@	c #8E6C6A",
"~@	c #685F5C",
"{@	c #474740",
"]@	c #2E2D28",
"^@	c #2B2A24",
"/@	c #2C2A24",
"(@	c #2D2B24",
"_@	c #2E2D25",
":@	c #2A2921",
"<@	c #2B2A21",
"[@	c #6D615C",
"}@	c #917371",
"|@	c #A97973",
"1@	c #BB827B",
"2@	c #C0857D",
"3@	c #C68982",
"4@	c #C78B82",
"5@	c #C3877F",
"6@	c #BD857E",
"7@	c #AB7A77",
"8@	c #937572",
"9@	c #6D605D",
"0@	c #27261F",
"a@	c #28261F",
"b@	c #292720",
"c@	c #2A2820",
"d@	c #29281F",
"e@	c #2A2920",
"f@	c #2A2A20",
"g@	c #4B4A43",
"h@	c #6A635E",
"i@	c #82726D",
"j@	c #987E78",
"k@	c #A98983",
"l@	c #B7938C",
"m@	c #B8938D",
"n@	c #AC8A84",
"o@	c #9A7E7A",
"p@	c #837370",
"q@	c #6A6560",
"r@	c #4B4944",
"s@	c #29271F",
"t@	c #292820",
"u@	c #2E2D24",
"v@	c #2E2D23",
"w@	c #2F2D23",
"x@	c #2F2E24",
"y@	c #39382F",
"z@	c #4D4B44",
"A@	c #625F59",
"B@	c #716A65",
"C@	c #776D67",
"D@	c #7F6F6A",
"E@	c #7F706A",
"F@	c #796C67",
"G@	c #615E59",
"H@	c #4B4A44",
"I@	c #37362E",
"J@	c #2E2C23",
"K@	c #2F2D25",
"L@	c #2F2E25",
"M@	c #333329",
"N@	c #343329",
"O@	c #35342A",
"P@	c #38382D",
"Q@	c #424238",
"R@	c #525149",
"S@	c #606058",
"T@	c #686760",
"U@	c #67675F",
"V@	c #5E5D56",
"W@	c #4F4F47",
"X@	c #414037",
"Y@	c #37362C",
"Z@	c #34332A",
"`@	c #35342B",
" #	c #36352C",
".#	c #35352C",
"+#	c #3B3A30",
"@#	c #3B3A31",
"##	c #3C3B31",
"$#	c #3C3B32",
"%#	c #3D3B32",
"&#	c #3B3930",
"*#	c #3A3930",
"=#	c #3C3A31",
"-#	c #3B3A32",
";#	c #3A3A31",
">#	c #3C3A33",
",#	c #3D3B34",
"'#	c #3D3C34",
")#	c #3E3C34",
"!#	c #3F3C35",
"~#	c #403D36",
"{#	c #403E36",
"]#	c #413E37",
"^#	c #413F38",
"/#	c #45423B",
"(#	c #46433C",
"_#	c #47443D",
":#	c #47443E",
"<#	c #47453E",
"[#	c #48453F",
"}#	c #48453E",
"|#	c #49463F",
"1#	c #494741",
"2#	c #4D4A43",
"3#	c #4E4C45",
"4#	c #4F4C45",
"5#	c #504D46",
"6#	c #504E47",
"7#	c #514E47",
"8#	c #514F48",
"9#	c #524F48",
"0#	c #525049",
"a#	c #585750",
"b#	c #58574F",
"c#	c #585850",
"d#	c #57564F",
"e#	c #57564E",
"f#	c #58574E",
"g#	c #57554D",
"h#	c #57564D",
"i#	c #56564D",
"j#	c #59574F",
"k#	c #595750",
"l#	c #5D5C54",
"m#	c #5C5C54",
"n#	c #5C5B53",
"o#	c #5B5A52",
"p#	c #5D5C53",
"q#	c #5C5C53",
"r#	c #5A5A51",
"s#	c #5B5B53",
"t#	c #5D5B54",
"u#	c #5F5E56",
"v#	c #5E5D55",
"w#	c #5D5D55",
"x#	c #5D5D54",
"y#	c #5E5E55",
"z#	c #5E5E56",
"A#	c #5F5F57",
"B#	c #616058",
"C#	c #606057",
"D#	c #5F5F56",
"E#	c #616158",
"F#	c #636359",
"G#	c #626259",
"H#	c #626359",
"I#	c #626258",
"J#	c #616258",
"K#	c #616157",
"L#	c #606056",
"M#	c #636459",
"N#	c #606157",
"O#	c #626257",
"P#	c #616257",
"Q#	c #626358",
"R#	c #606156",
"S#	c #5E6055",
"T#	c #5F6055",
"U#	c #5F5F55",
"V#	c #5E5F55",
"W#	c #5D5E54",
"X#	c #5C5D54",
"Y#	c #5C5D53",
"Z#	c #5E5E54",
"`#	c #5F5F54",
" $	c #5E5F53",
".$	c #5D5E53",
"+$	c #5E5F54",
"@$	c #5C5D52",
"#$	c #5D5D53",
"$$	c #5B5C52",
"%$	c #5A5B51",
"&$	c #595A50",
"*$	c #585950",
"=$	c #5A5B50",
"-$	c #5B5C51",
";$	c #5B5C50",
">$	c #5A5B4F",
",$	c #5B5D51",
"'$	c #595A4F",
")$	c #595B4F",
". + @ # $ # $ $ % % & * = - ; ; > , , - - - . . ",
"' ) ! ~ ~ { ] ^ / ( _ _ : < [ @ } ' ' } ' ' ' ) ",
"| 1 2 2 2 ] 3 4 5 6 7 8 9 0 a b } c c c d c | 2 ",
"e e e e f g h i i j k l j i m n ^ o p p p q r s ",
"t u u v * w x y z A B C D E F G H I J K L M N O ",
"P P M Q R S T U V W X X Y Z `  ...+.@.#.$.%.&.*.",
"=.=.-.;.>.,.'.).!.~.{.].^./.(.'._.:.<.N [.[.}.|.",
"1.1.2.3.4.5.6.7.8.9.0.a.b.c.d.e.f.g.h.i.j.j.k.l.",
"j.m.n.o.p.q.r.s.t.u.v.w.x.y.z.A.B.C.D.@.E.E.F.G.",
"H.I.J.K.L.M.N.O.P.Q.R.S.T.U.V.W.X.Y.Z.`. + +.+.+",
"++++`.@+#+$+%+&+*+=+-+;+>+,+'+)+!+~+{+]+^+/+(+_+",
":+:+<+[+}+|+1+2+3+4+5+6+7+8+9+0+a+b+[+c+d+e+f+g+",
"h+i+j+k+l+m+n+o+p+q+r+s+t+u+v+w+x+y+z+A+B+B+C+D+",
"E+F+G+H+I+J+K+L+M+N+O+P+Q+R+S+T+U+V+W+X+Y+Z+`+ @",
".@.@+@@@#@$@%@&@*@=@-@;@>@,@'@)@!@~@{@]@^@/@(@_@",
":@:@<@h+&.[@}@|@1@2@3@4@5@6@7@8@9@@@F+0@0@a@b@c@",
"d@d@e@f@h+g@h@i@j@k@l@m@n@o@p@q@r@D+s@s@b@t@:@<@",
"u@v@w@x@x@y@z@A@B@C@D@E@F@B@G@H@I@J@u@u@_@K@L@L@",
"M@N@N@N@O@O@P@Q@R@S@T@U@V@W@X@Y@Z@O@`@`@i+ # #.#",
"+#+#+#+#@#####$#%###@#&#*#&#*#*#&#+#&#&#=#(+-#;#",
">#,#'#)#)#++!#!#!#!#++++!# + +~#.+{#~#.+]#^#^#^#",
"/#/#/#l.l.(#m.m.m.(#(#(#_#:#<#[#[#}#}#[#|#}.}.1#",
"z@2#z@z@3#%.3#3#4#4#4#4#5#6#7#8#7#6#6#8#9#0#0#0#",
"a#b#b#b#c#b#d#e#f#e#g#h#e#f#f#h#i#h#e#j#j#k#j#a#",
"l#l#l#l#l#m#n#n#n#o#o#o#n#p#q#o#r#o#s#t#l#l#n#n#",
"u#u#u#u#u#V@v#w#x#w#v#y#y#z#y#x#x#x#y#u#u#y#w#l#",
"z#v#v#z#u#u#u#y#u#A#B#B#B#B#B#C#C#C#C#C#C#D#y#y#",
"C#C#C#C#C#C#C#C#E#E#F#F#F#G#G#G#H#H#H#I#J#K#L#L#",
"J#J#J#E#I#J#J#J#J#G#F#F#F#F#H#F#M#F#F#I#E#K#E#K#",
"J#J#J#J#E#E#N#N#N#E#J#I#O#K#P#Q#Q#I#K#L#L#R#N#L#",
"S#T#U#V#V#W#W#X#Y#x#Z#`# $.$+$T#T#+$.$@$Y#.$.$#$",
"Y#@$@$$$$$%$&$&$*$&$=$-$;$>$;$,$,$=$'$'$)$=$=$&$"};
