/* XPM */
static char * close_button_inactive_xpm[] = {
"24 32 428 2",
"  	c None",
". 	c #65625E",
"+ 	c #64625D",
"@ 	c #63615C",
"# 	c #62605B",
"$ 	c #625F5B",
"% 	c #625F5C",
"& 	c #63605D",
"* 	c #63615D",
"= 	c #64615D",
"- 	c #65625D",
"; 	c #66635E",
"> 	c #65635D",
", 	c #64625C",
"' 	c #625F5A",
") 	c #615E5A",
"! 	c #605E59",
"~ 	c #605D58",
"{ 	c #605D59",
"] 	c #615F5B",
"^ 	c #666460",
"/ 	c #6D6C69",
"( 	c #757370",
"_ 	c #787673",
": 	c #787674",
"< 	c #757270",
"[ 	c #6E6D69",
"} 	c #686561",
"| 	c #62605A",
"1 	c #5D5A55",
"2 	c #5C5A55",
"3 	c #5C5954",
"4 	c #615F5A",
"5 	c #676662",
"6 	c #6B6A67",
"7 	c #686766",
"8 	c #626160",
"9 	c #5E5D5B",
"0 	c #5D5D5C",
"a 	c #62615F",
"b 	c #6C6A68",
"c 	c #686662",
"d 	c #5D5B55",
"e 	c #5E5B55",
"f 	c #585550",
"g 	c #5E5C58",
"h 	c #656360",
"i 	c #676664",
"j 	c #636262",
"k 	c #686868",
"l 	c #6C6C6D",
"m 	c #6D6D6D",
"n 	c #646362",
"o 	c #676764",
"p 	c #656460",
"q 	c #5F5C57",
"r 	c #595651",
"s 	c #585650",
"t 	c #57554F",
"u 	c #56544E",
"v 	c #54524C",
"w 	c #54514C",
"x 	c #5A5852",
"y 	c #636260",
"z 	c #5F5E5D",
"A 	c #5C5C5D",
"B 	c #696969",
"C 	c #767676",
"D 	c #7F7F7F",
"E 	c #5D5D5D",
"F 	c #5F5F5E",
"G 	c #62605C",
"H 	c #5A5752",
"I 	c #54514B",
"J 	c #53514B",
"K 	c #53504A",
"L 	c #52504A",
"M 	c #514F49",
"N 	c #504E48",
"O 	c #5F5C59",
"P 	c #63625F",
"Q 	c #5B5A59",
"R 	c #505050",
"S 	c #5C5C5C",
"T 	c #808080",
"U 	c #A2A2A2",
"V 	c #B5B5B5",
"W 	c #5B5B5A",
"X 	c #5D5C57",
"Y 	c #514E48",
"Z 	c #4E4C46",
"` 	c #4E4B45",
" .	c #4D4B45",
"..	c #4D4A44",
"+.	c #4B4943",
"@.	c #55524D",
"#.	c #63615E",
"$.	c #5D5C5B",
"%.	c #4C4D4D",
"&.	c #464646",
"*.	c #626262",
"=.	c #898989",
"-.	c #A3A3A3",
";.	c #AFAFAF",
">.	c #878787",
",.	c #616161",
"'.	c #4D4D4E",
").	c #5E5D5C",
"!.	c #62615D",
"~.	c #494740",
"{.	c #494640",
"].	c #48463F",
"^.	c #484640",
"/.	c #5A5853",
"(.	c #605F5D",
"_.	c #575655",
":.	c #424242",
"<.	c #5B5B5B",
"[.	c #727272",
"}.	c #818181",
"|.	c #868686",
"1.	c #707070",
"2.	c #595959",
"3.	c #444444",
"4.	c #585857",
"5.	c #585652",
"6.	c #46443D",
"7.	c #45433C",
"8.	c #45423C",
"9.	c #46433D",
"0.	c #5F5E5A",
"a.	c #5A5A58",
"b.	c #545455",
"c.	c #3A3A3A",
"d.	c #414141",
"e.	c #515151",
"f.	c #5F5F5F",
"g.	c #6A6A6A",
"h.	c #5E5E5E",
"i.	c #3B3B3B",
"j.	c #565655",
"k.	c #5B5A57",
"l.	c #5E5C57",
"m.	c #424039",
"n.	c #424038",
"o.	c #423F38",
"p.	c #42403A",
"q.	c #43413A",
"r.	c #62615C",
"s.	c #575654",
"t.	c #555556",
"u.	c #393939",
"v.	c #4A4A4A",
"w.	c #585858",
"x.	c #656565",
"y.	c #717171",
"z.	c #777777",
"A.	c #787878",
"B.	c #676767",
"C.	c #4B4B4B",
"D.	c #565656",
"E.	c #565653",
"F.	c #5F5E59",
"G.	c #3F3D36",
"H.	c #403E37",
"I.	c #3E3C35",
"J.	c #585755",
"K.	c #5A5A5B",
"L.	c #434343",
"M.	c #6B6B6B",
"N.	c #7A7A7A",
"O.	c #858585",
"P.	c #8C8C8C",
"Q.	c #8D8D8D",
"R.	c #7C7C7C",
"S.	c #5A5A5A",
"T.	c #5A5B5A",
"U.	c #5D5B56",
"V.	c #3A3831",
"W.	c #3B3931",
"X.	c #3C3A32",
"Y.	c #3D3B33",
"Z.	c #39372F",
"`.	c #585751",
" +	c #5D5C59",
".+	c #626261",
"++	c #535353",
"@+	c #666666",
"#+	c #7D7D7D",
"$+	c #989898",
"%+	c #9E9E9E",
"&+	c #9F9F9F",
"*+	c #9A9A9A",
"=+	c #8F8F8F",
"-+	c #5C5D59",
";+	c #575651",
">+	c #37352E",
",+	c #38362F",
"'+	c #393730",
")+	c #393830",
"!+	c #36352D",
"~+	c #36342C",
"{+	c #4C4B45",
"]+	c #61615D",
"^+	c #666766",
"/+	c #636363",
"(+	c #6C6C6C",
"_+	c #8A8A8A",
":+	c #9C9C9C",
"<+	c #A6A6A6",
"[+	c #ACACAC",
"}+	c #ADADAD",
"|+	c #A7A7A7",
"1+	c #9D9D9D",
"2+	c #8B8B8B",
"3+	c #6E6E6E",
"4+	c #676766",
"5+	c #61615E",
"6+	c #4B4A44",
"7+	c #33322B",
"8+	c #34332B",
"9+	c #35332C",
"0+	c #33312A",
"a+	c #323129",
"b+	c #3E3D36",
"c+	c #5C5C57",
"d+	c #6A6A68",
"e+	c #6E6E6D",
"f+	c #888888",
"g+	c #B0B0B0",
"h+	c #B6B6B6",
"i+	c #B7B7B7",
"j+	c #B1B1B1",
"k+	c #A4A4A4",
"l+	c #6E6E6F",
"m+	c #6A6968",
"n+	c #5B5B57",
"o+	c #3C3C36",
"p+	c #302F28",
"q+	c #302F29",
"r+	c #313029",
"s+	c #323029",
"t+	c #2F2E26",
"u+	c #32312A",
"v+	c #4A4943",
"w+	c #62625F",
"x+	c #727271",
"y+	c #969696",
"z+	c #A8A8A8",
"A+	c #B4B4B4",
"B+	c #ABABAB",
"C+	c #838383",
"D+	c #787879",
"E+	c #737372",
"F+	c #474740",
"G+	c #2E2D28",
"H+	c #2B2A24",
"I+	c #2C2A24",
"J+	c #2D2B24",
"K+	c #2E2D25",
"L+	c #2A2921",
"M+	c #2B2A21",
"N+	c #636360",
"O+	c #7A7A79",
"P+	c #919191",
"Q+	c #979797",
"R+	c #949494",
"S+	c #909090",
"T+	c #7B7B7A",
"U+	c #646360",
"V+	c #27261F",
"W+	c #28261F",
"X+	c #292720",
"Y+	c #2A2820",
"Z+	c #29281F",
"`+	c #2A2920",
" @	c #2A2A20",
".@	c #656561",
"+@	c #757573",
"@@	c #838382",
"#@	c #90908F",
"$@	c #9A9B9B",
"%@	c #909091",
"&@	c #858483",
"*@	c #777775",
"=@	c #666662",
"-@	c #4B4944",
";@	c #29271F",
">@	c #292820",
",@	c #2E2D24",
"'@	c #2E2D23",
")@	c #2F2D23",
"!@	c #2F2E24",
"~@	c #39382F",
"{@	c #4C4B44",
"]@	c #605F5A",
"^@	c #6C6B67",
"/@	c #6F6F6B",
"(@	c #72726F",
"_@	c #73736F",
":@	c #4B4A43",
"<@	c #37362E",
"[@	c #2E2C23",
"}@	c #2F2D25",
"|@	c #2F2E25",
"1@	c #333329",
"2@	c #343329",
"3@	c #35342A",
"4@	c #38382D",
"5@	c #424238",
"6@	c #525149",
"7@	c #606059",
"8@	c #686760",
"9@	c #5E5D56",
"0@	c #4F4F47",
"a@	c #414037",
"b@	c #37362C",
"c@	c #34332A",
"d@	c #35342B",
"e@	c #36352C",
"f@	c #35352C",
"g@	c #3B3A30",
"h@	c #3B3A31",
"i@	c #3C3B31",
"j@	c #3C3B32",
"k@	c #3D3B32",
"l@	c #3B3930",
"m@	c #3A3930",
"n@	c #3C3A31",
"o@	c #3B3A32",
"p@	c #3A3A31",
"q@	c #3C3A33",
"r@	c #3D3B34",
"s@	c #3D3C34",
"t@	c #3E3C34",
"u@	c #3F3C35",
"v@	c #403D36",
"w@	c #403E36",
"x@	c #413E37",
"y@	c #413F38",
"z@	c #45423B",
"A@	c #46433C",
"B@	c #47443D",
"C@	c #47443E",
"D@	c #47453E",
"E@	c #48453F",
"F@	c #48453E",
"G@	c #49463F",
"H@	c #494741",
"I@	c #4D4B44",
"J@	c #4D4A43",
"K@	c #4E4C45",
"L@	c #4F4C45",
"M@	c #504D46",
"N@	c #504E47",
"O@	c #514E47",
"P@	c #514F48",
"Q@	c #524F48",
"R@	c #525049",
"S@	c #585750",
"T@	c #58574F",
"U@	c #585850",
"V@	c #57564F",
"W@	c #57564E",
"X@	c #58574E",
"Y@	c #57554D",
"Z@	c #57564D",
"`@	c #56564D",
" #	c #59574F",
".#	c #595750",
"+#	c #5D5C54",
"@#	c #5C5C54",
"##	c #5C5B53",
"$#	c #5B5A52",
"%#	c #5D5C53",
"&#	c #5C5C53",
"*#	c #5A5A51",
"=#	c #5B5B53",
"-#	c #5D5B54",
";#	c #5F5E56",
">#	c #5E5D55",
",#	c #5D5D55",
"'#	c #5D5D54",
")#	c #5E5E55",
"!#	c #5E5E56",
"~#	c #5F5F57",
"{#	c #616058",
"]#	c #606057",
"^#	c #5F5F56",
"/#	c #616158",
"(#	c #636359",
"_#	c #626259",
":#	c #626359",
"<#	c #626258",
"[#	c #616258",
"}#	c #616157",
"|#	c #606056",
"1#	c #636459",
"2#	c #606157",
"3#	c #626257",
"4#	c #616257",
"5#	c #626358",
"6#	c #606156",
"7#	c #5E6055",
"8#	c #5F6055",
"9#	c #5F5F55",
"0#	c #5E5F55",
"a#	c #5D5E54",
"b#	c #5C5D54",
"c#	c #5C5D53",
"d#	c #5E5E54",
"e#	c #5F5F54",
"f#	c #5E5F53",
"g#	c #5D5E53",
"h#	c #5E5F54",
"i#	c #5C5D52",
"j#	c #5D5D53",
"k#	c #5B5C52",
"l#	c #5A5B51",
"m#	c #595A50",
"n#	c #585950",
"o#	c #5A5B50",
"p#	c #5B5C51",
"q#	c #5B5C50",
"r#	c #5A5B4F",
"s#	c #5B5D51",
"t#	c #595A4F",
"u#	c #595B4F",
". + @ # $ # $ $ % % & * = - ; ; > , , - - - . . ",
"' ) ! ~ ~ { ] ^ / ( _ : < [ } @ | ' ' | ' ' ' ) ",
"1 2 3 3 3 4 5 6 7 8 9 0 a 7 b c | d d d e d 1 3 ",
"f f f f g h i j j k l m k j n o p q r r r s t u ",
"v w w x * y z A B C D D C B E F y G H I J K L M ",
"N N K O P Q R S T U V V U D S R W P X Y Z `  ...",
"+.+.@.#.$.%.&.*.=.-.;.;.U >.,.&.'.).!.L ~.~.{.].",
"^.^./.(._.:.:.<.[.}.|.|.T 1.2.:.3.4.(.5.6.6.7.8.",
"6.9.0.a.b.c.d.e.f.g.1.1.g.h.e.:.i.j.k.l.m.m.n.o.",
"p.q.r.s.t.u.v.w.x.y.z.A.[.B.2.C.u.D.E.F.G.G.H.H.",
"I.I.F.J.K.L.2.M.N.O.P.Q.>.R.m S.L.T._.U.V.W.X.Y.",
"Z.Z.`. +.+++@+#+P.$+%+&+*+=+D @+++,.-+;+>+,+'+)+",
"!+~+{+]+^+/+(+_+:+<+[+}+|+1+2+3+x.4+5+6+7+7+8+9+",
"0+a+b+c+d+e+1.f+U g+h+i+j+k+2+[.l+m+n+o+p+q+r+s+",
"t+t+u+v+w+x+C T y+z+A+V B+$+C+D+E+5+F+G+H+I+J+K+",
"L+L+M+!+{+N+O+C+Q.P+y+Q+R+S+O.T+U+v+a+V+V+W+X+Y+",
"Z+Z+`+ @!+6+.@+@@@#@*+$@%@&@*@=@-@9+;@;@X+>@L+M+",
",@'@)@!@!@~@{@]@^@/@(@_@/@^@! :@<@[@,@,@K+}@|@|@",
"1@2@2@2@3@3@4@5@6@7@8@8@9@0@a@b@c@3@d@d@~+e@e@f@",
"g@g@g@g@h@i@i@j@k@i@h@l@m@l@m@m@l@g@l@l@n@X.o@p@",
"q@r@s@t@t@I.u@u@u@u@I.I.u@G.G.v@H.w@v@H.x@y@y@y@",
"z@z@z@8.8.A@9.9.9.A@A@A@B@C@D@E@E@F@F@E@G@{.{.H@",
"I@J@I@I@K@` K@K@L@L@L@L@M@N@O@P@O@N@N@P@Q@R@R@R@",
"S@T@T@T@U@T@V@W@X@W@Y@Z@W@X@X@Z@`@Z@W@ # #.# #S@",
"+#+#+#+#+#@#######$#$#$###%#&#$#*#$#=#-#+#+#####",
";#;#;#;#;#9@>#,#'#,#>#)#)#!#)#'#'#'#)#;#;#)#,#+#",
"!#>#>#!#;#;#;#)#;#~#{#{#{#{#{#]#]#]#]#]#]#^#)#)#",
"]#]#]#]#]#]#]#]#/#/#(#(#(#_#_#_#:#:#:#<#[#}#|#|#",
"[#[#[#/#<#[#[#[#[#_#(#(#(#(#:#(#1#(#(#<#/#}#/#}#",
"[#[#[#[#/#/#2#2#2#/#[#<#3#}#4#5#5#<#}#|#|#6#2#|#",
"7#8#9#0#0#a#a#b#c#'#d#e#f#g#h#8#8#h#g#i#c#g#g#j#",
"c#i#i#k#k#l#m#m#n#m#o#p#q#r#q#s#s#o#t#t#u#o#o#m#"};
