/* XPM */
static char * gradient_xpm[] = {
"24 32 283 2",
"  	c None",
". 	c #65625E",
"+ 	c #64625D",
"@ 	c #63615C",
"# 	c #62605B",
"$ 	c #625F5B",
"% 	c #625F5C",
"& 	c #63605D",
"* 	c #63615D",
"= 	c #64615D",
"- 	c #65625D",
"; 	c #66635E",
"> 	c #65635D",
", 	c #64625C",
"' 	c #625F5A",
") 	c #615E5A",
"! 	c #605E59",
"~ 	c #605D58",
"{ 	c #605D59",
"] 	c #605E5A",
"^ 	c #615F5A",
"/ 	c #62605A",
"( 	c #5D5A55",
"_ 	c #5C5A55",
": 	c #5C5954",
"< 	c #5C5A56",
"[ 	c #5D5A56",
"} 	c #5D5B55",
"| 	c #5E5B55",
"1 	c #585550",
"2 	c #585651",
"3 	c #595751",
"4 	c #595752",
"5 	c #595651",
"6 	c #585650",
"7 	c #595650",
"8 	c #57554F",
"9 	c #56544E",
"0 	c #54524C",
"a 	c #54514C",
"b 	c #55524D",
"c 	c #53514C",
"d 	c #53514B",
"e 	c #54514B",
"f 	c #53504A",
"g 	c #52504A",
"h 	c #514F49",
"i 	c #504E48",
"j 	c #514E48",
"k 	c #514E49",
"l 	c #504E47",
"m 	c #4F4D47",
"n 	c #4F4D46",
"o 	c #4F4C46",
"p 	c #4E4C46",
"q 	c #4E4B45",
"r 	c #4D4B45",
"s 	c #4D4A44",
"t 	c #4B4943",
"u 	c #4C4943",
"v 	c #4A4942",
"w 	c #4A4842",
"x 	c #4B4942",
"y 	c #494842",
"z 	c #494741",
"A 	c #494740",
"B 	c #494640",
"C 	c #48463F",
"D 	c #484640",
"E 	c #47453F",
"F 	c #47453E",
"G 	c #47463F",
"H 	c #46453E",
"I 	c #45443D",
"J 	c #45433C",
"K 	c #45433D",
"L 	c #46443D",
"M 	c #46443E",
"N 	c #45423C",
"O 	c #46433D",
"P 	c #44423C",
"Q 	c #44423B",
"R 	c #44433C",
"S 	c #42413A",
"T 	c #424039",
"U 	c #414039",
"V 	c #42403A",
"W 	c #424038",
"X 	c #423F38",
"Y 	c #43413A",
"Z 	c #414038",
"` 	c #413F38",
" .	c #403E37",
"..	c #3F3E36",
"+.	c #3F3D36",
"@.	c #3E3C35",
"#.	c #3E3C34",
"$.	c #3D3C34",
"%.	c #3D3B33",
"&.	c #3C3A32",
"*.	c #3A3931",
"=.	c #3B3931",
"-.	c #3A3831",
";.	c #3A3830",
">.	c #39372F",
",.	c #3A382F",
"'.	c #38372E",
").	c #37362D",
"!.	c #36352D",
"~.	c #37352E",
"{.	c #37362E",
"].	c #38362F",
"^.	c #393730",
"/.	c #393830",
"(.	c #36342C",
"_.	c #35342C",
":.	c #36342D",
"<.	c #35332B",
"[.	c #34332B",
"}.	c #33322A",
"|.	c #33322B",
"1.	c #34322B",
"2.	c #35332C",
"3.	c #33312A",
"4.	c #323129",
"5.	c #313028",
"6.	c #313029",
"7.	c #312F29",
"8.	c #312F28",
"9.	c #302F28",
"0.	c #302F29",
"a.	c #323029",
"b.	c #2F2E26",
"c.	c #2F2E27",
"d.	c #302F27",
"e.	c #2E2D25",
"f.	c #2E2C25",
"g.	c #2E2D26",
"h.	c #2D2C25",
"i.	c #2D2C24",
"j.	c #2C2B24",
"k.	c #2C2B23",
"l.	c #2B2A24",
"m.	c #2C2A24",
"n.	c #2D2B24",
"o.	c #2A2921",
"p.	c #2B2A21",
"q.	c #2C2B22",
"r.	c #2C2A22",
"s.	c #2A2920",
"t.	c #2A2820",
"u.	c #292820",
"v.	c #29271F",
"w.	c #28271F",
"x.	c #28271E",
"y.	c #27261F",
"z.	c #28261F",
"A.	c #292720",
"B.	c #29281F",
"C.	c #2A2A20",
"D.	c #2A291F",
"E.	c #2B2921",
"F.	c #2E2D24",
"G.	c #2E2D23",
"H.	c #2F2D23",
"I.	c #2F2E24",
"J.	c #302E24",
"K.	c #2F2D24",
"L.	c #2E2C23",
"M.	c #2D2C23",
"N.	c #2F2D25",
"O.	c #2F2E25",
"P.	c #333329",
"Q.	c #343329",
"R.	c #35342A",
"S.	c #35352A",
"T.	c #36352B",
"U.	c #34332A",
"V.	c #35342B",
"W.	c #36352C",
"X.	c #35352C",
"Y.	c #3B3A30",
"Z.	c #3B3A31",
"`.	c #3C3B31",
" +	c #3C3B32",
".+	c #3D3B32",
"++	c #3B3930",
"@+	c #3A3930",
"#+	c #3C3A31",
"$+	c #3B3A32",
"%+	c #3A3A31",
"&+	c #3C3A33",
"*+	c #3D3B34",
"=+	c #3F3C35",
"-+	c #403D36",
";+	c #403E36",
">+	c #413E37",
",+	c #45423B",
"'+	c #46433C",
")+	c #47443D",
"!+	c #47443E",
"~+	c #48453F",
"{+	c #48453E",
"]+	c #49463F",
"^+	c #4D4B44",
"/+	c #4D4A43",
"(+	c #4E4C45",
"_+	c #4F4C45",
":+	c #504D46",
"<+	c #514E47",
"[+	c #514F48",
"}+	c #524F48",
"|+	c #525049",
"1+	c #585750",
"2+	c #58574F",
"3+	c #585850",
"4+	c #57564F",
"5+	c #57564E",
"6+	c #58574E",
"7+	c #57554D",
"8+	c #57564D",
"9+	c #56564D",
"0+	c #59574F",
"a+	c #595750",
"b+	c #5D5C54",
"c+	c #5C5C54",
"d+	c #5C5B53",
"e+	c #5B5A52",
"f+	c #5D5C53",
"g+	c #5C5C53",
"h+	c #5A5A51",
"i+	c #5B5B53",
"j+	c #5D5B54",
"k+	c #5F5E56",
"l+	c #5E5D56",
"m+	c #5E5D55",
"n+	c #5D5D55",
"o+	c #5D5D54",
"p+	c #5E5E55",
"q+	c #5E5E56",
"r+	c #5F5F57",
"s+	c #616058",
"t+	c #606057",
"u+	c #5F5F56",
"v+	c #616158",
"w+	c #636359",
"x+	c #626259",
"y+	c #626359",
"z+	c #626258",
"A+	c #616258",
"B+	c #616157",
"C+	c #606056",
"D+	c #636459",
"E+	c #606157",
"F+	c #626257",
"G+	c #616257",
"H+	c #626358",
"I+	c #606156",
"J+	c #5E6055",
"K+	c #5F6055",
"L+	c #5F5F55",
"M+	c #5E5F55",
"N+	c #5D5E54",
"O+	c #5C5D54",
"P+	c #5C5D53",
"Q+	c #5E5E54",
"R+	c #5F5F54",
"S+	c #5E5F53",
"T+	c #5D5E53",
"U+	c #5E5F54",
"V+	c #5C5D52",
"W+	c #5D5D53",
"X+	c #5B5C52",
"Y+	c #5A5B51",
"Z+	c #595A50",
"`+	c #585950",
" @	c #5A5B50",
".@	c #5B5C51",
"+@	c #5B5C50",
"@@	c #5A5B4F",
"#@	c #5B5D51",
"$@	c #595A4F",
"%@	c #595B4F",
". + @ # $ # $ $ % % & * = - ; ; > , , - - - . . ",
"' ) ! ~ ~ { ! { ] ) ) ) ) ^ ' / / ' ' / ' ' ' ) ",
"( _ : : : _ _ _ < [ [ _ _ _ ( ( } } } } | } ( : ",
"1 1 1 1 2 2 2 2 3 4 5 6 6 6 6 6 6 7 5 5 5 6 8 9 ",
"0 a a 0 b 0 c c 0 0 0 c d d 0 0 d e a e d f g h ",
"i i j k j i l i i i i i m m m n n n m o p q r s ",
"t t u t t v w x x x x w y z A A z z z A A A B C ",
"D D C E F F F G G F F H I J K L M K K K L L J N ",
"L O K P Q Q Q R R Q Q S T U T V S T T T T T W X ",
"V Y Y T T T T T Z `  ...+... . . .+.+.+.+.+. . .",
"@.@.@.#.#.#.#.$.%.&.*.*.*.=.=.=.=.*.-.;.-.=.&.%.",
">.>.>.>.,.>.>.>.'.).!.!.~.{.{.{.{.{.{.~.~.].^./.",
"!.(._.(.!.:._.<.[.}.}.}.|.|.|.1.1.|.|.}.|.|.[.2.",
"3.4.4.}.|.}.4.5.5.5.6.6.7.7.7.7.7.8.9.9.9.0.6.a.",
"b.b.c.d.9.c.e.f.e.e.g.e.h.f.f.f.i.j.k.l.l.m.n.e.",
"o.o.p.q.r.o.s.s.s.o.o.o.o.o.t.u.v.w.x.y.y.z.A.t.",
"B.B.s.C.s.B.B.D.s.s.o.E.p.s.s.B.v.v.v.v.A.u.o.p.",
"F.G.H.I.I.I.I.J.J.I.I.I.K.G.L.M.M.L.F.F.e.N.O.O.",
"P.Q.Q.Q.R.R.S.S.T.T.R.R.Q.Q.Q.Q.U.R.V.V.(.W.W.X.",
"Y.Y.Y.Y.Z.`.`. +.+`.Z.++@+++@+@+++Y.++++#+&.$+%+",
"&+*+$.#.#.@.=+=+=+=+@.@.=++.+.-+ .;+-+ .>+` ` ` ",
",+,+,+N N '+O O O '+'+'+)+!+F ~+~+{+{+~+]+B B z ",
"^+/+^+^+(+q (+(+_+_+_+_+:+l <+[+<+l l [+}+|+|+|+",
"1+2+2+2+3+2+4+5+6+5+7+8+5+6+6+8+9+8+5+0+0+a+0+1+",
"b+b+b+b+b+c+d+d+d+e+e+e+d+f+g+e+h+e+i+j+b+b+d+d+",
"k+k+k+k+k+l+m+n+o+n+m+p+p+q+p+o+o+o+p+k+k+p+n+b+",
"q+m+m+q+k+k+k+p+k+r+s+s+s+s+s+t+t+t+t+t+t+u+p+p+",
"t+t+t+t+t+t+t+t+v+v+w+w+w+x+x+x+y+y+y+z+A+B+C+C+",
"A+A+A+v+z+A+A+A+A+x+w+w+w+w+y+w+D+w+w+z+v+B+v+B+",
"A+A+A+A+v+v+E+E+E+v+A+z+F+B+G+H+H+z+B+C+C+I+E+C+",
"J+K+L+M+M+N+N+O+P+o+Q+R+S+T+U+K+K+U+T+V+P+T+T+W+",
"P+V+V+X+X+Y+Z+Z+`+Z+ @.@+@@@+@#@#@ @$@$@%@ @ @Z+"};
