/* XPM */
static char * shade_xpm[] = {
"24 32 459 2",
"  	c None",
". 	c #65625E",
"+ 	c #64625D",
"@ 	c #63615C",
"# 	c #62605B",
"$ 	c #625F5B",
"% 	c #625F5C",
"& 	c #63605D",
"* 	c #63615D",
"= 	c #64615D",
"- 	c #65625D",
"; 	c #66635E",
"> 	c #65635D",
", 	c #64625C",
"' 	c #625F5A",
") 	c #615E5A",
"! 	c #605E59",
"~ 	c #605D58",
"{ 	c #605D59",
"] 	c #615E5B",
"^ 	c #666562",
"/ 	c #706E6D",
"( 	c #757375",
"_ 	c #767475",
": 	c #6F6D6C",
"< 	c #676662",
"[ 	c #63605C",
"} 	c #62605A",
"| 	c #5D5A55",
"1 	c #5C5A55",
"2 	c #5C5954",
"3 	c #5D5B57",
"4 	c #636260",
"5 	c #666567",
"6 	c #68676F",
"7 	c #696873",
"8 	c #6B6A77",
"9 	c #6A6A77",
"0 	c #686872",
"a 	c #68686F",
"b 	c #676568",
"c 	c #646160",
"d 	c #5E5C57",
"e 	c #5D5B55",
"f 	c #5E5B55",
"g 	c #585550",
"h 	c #5B5955",
"i 	c #605F5E",
"j 	c #65656B",
"k 	c #666674",
"l 	c #6B6B7D",
"m 	c #737589",
"n 	c #7B7C92",
"o 	c #7B7C93",
"p 	c #727487",
"q 	c #6A6B7D",
"r 	c #676774",
"s 	c #66656B",
"t 	c #615F5E",
"u 	c #595651",
"v 	c #585650",
"w 	c #57554F",
"x 	c #56544E",
"y 	c #54524C",
"z 	c #54514C",
"A 	c #5E5C5B",
"B 	c #616168",
"C 	c #676879",
"D 	c #6C6E85",
"E 	c #7A7C94",
"F 	c #87889E",
"G 	c #8F90A5",
"H 	c #7B7C95",
"I 	c #6D6E85",
"J 	c #686979",
"K 	c #616067",
"L 	c #5D5B5A",
"M 	c #56534E",
"N 	c #54514B",
"O 	c #53514B",
"P 	c #53504A",
"Q 	c #52504A",
"R 	c #514F49",
"S 	c #504E48",
"T 	c #514E48",
"U 	c #5A5756",
"V 	c #616066",
"W 	c #646576",
"X 	c #64667E",
"Y 	c #71738D",
"Z 	c #8C8DA3",
"` 	c #A7A8B9",
" .	c #B7B7C6",
"..	c #8B8DA3",
"+.	c #64667F",
"@.	c #606065",
"#.	c #585654",
"$.	c #4F4C46",
"%.	c #4E4C46",
"&.	c #4E4B45",
"*.	c #4D4B45",
"=.	c #4D4A44",
"-.	c #4B4943",
";.	c #5B5A5C",
">.	c #60606D",
",.	c #61637B",
"'.	c #61637F",
").	c #757690",
"!.	c #9193A8",
"~.	c #A7A8BA",
"{.	c #B2B3C2",
"].	c #9192A7",
"^.	c #74768F",
"/.	c #62647C",
"(.	c #5F606D",
"_.	c #5A595A",
":.	c #494740",
"<.	c #494640",
"[.	c #48463F",
"}.	c #484640",
"|.	c #504F4A",
"1.	c #5D5D63",
"2.	c #5F6173",
"3.	c #5F617D",
"4.	c #5E607D",
"5.	c #6F718B",
"6.	c #808199",
"7.	c #9091A7",
"8.	c #9091A6",
"9.	c #8A8CA2",
"0.	c #7F8098",
"a.	c #6E708A",
"b.	c #60627E",
"c.	c #616274",
"d.	c #5C5C63",
"e.	c #4E4C48",
"f.	c #46443D",
"g.	c #45433C",
"h.	c #45423C",
"i.	c #46433D",
"j.	c #585655",
"k.	c #5E5E68",
"l.	c #63657A",
"m.	c #545671",
"n.	c #52546E",
"o.	c #56586F",
"p.	c #5E5F75",
"q.	c #65667B",
"r.	c #67687D",
"s.	c #64657A",
"t.	c #5D5F75",
"u.	c #56576E",
"v.	c #53546E",
"w.	c #545672",
"x.	c #63647B",
"y.	c #5D5D67",
"z.	c #555452",
"A.	c #424039",
"B.	c #424038",
"C.	c #423F38",
"D.	c #42403A",
"E.	c #43413A",
"F.	c #5E5D5D",
"G.	c #60616C",
"H.	c #696B83",
"I.	c #4D4F69",
"J.	c #4B4C62",
"K.	c #46485A",
"L.	c #4C4D5F",
"M.	c #515363",
"N.	c #545565",
"O.	c #555666",
"P.	c #525364",
"Q.	c #4D4E5F",
"R.	c #47485A",
"S.	c #696A82",
"T.	c #60606C",
"U.	c #5B5B5A",
"V.	c #3F3D36",
"W.	c #403E37",
"X.	c #3E3C35",
"Y.	c #5B5A59",
"Z.	c #61616C",
"`.	c #6C6D85",
" +	c #53556E",
".+	c #55566B",
"++	c #5B5C6B",
"@+	c #616270",
"#+	c #646573",
"$+	c #656673",
"%+	c #626371",
"&+	c #5C5D6C",
"*+	c #55576B",
"=+	c #6B6D85",
"-+	c #605F6B",
";+	c #585756",
">+	c #3A3831",
",+	c #3B3931",
"'+	c #3C3A32",
")+	c #3D3B33",
"!+	c #39372F",
"~+	c #4F4E4A",
"{+	c #5D5D65",
"]+	c #6A6B7F",
"^+	c #63657F",
"/+	c #696B81",
"(+	c #737487",
"_+	c #7D7E8F",
":+	c #858595",
"<+	c #898A99",
"[+	c #858696",
"}+	c #7E7F90",
"|+	c #747588",
"1+	c #6A6B82",
"2+	c #64657F",
"3+	c #6A6B80",
"4+	c #5C5D65",
"5+	c #4E4C4A",
"6+	c #37352E",
"7+	c #38362F",
"8+	c #393730",
"9+	c #393830",
"0+	c #36352D",
"a+	c #36342C",
"b+	c #403F39",
"c+	c #5A595D",
"d+	c #67697A",
"e+	c #757790",
"f+	c #7B7D96",
"g+	c #9192A8",
"h+	c #9FA1B4",
"i+	c #A9AABB",
"j+	c #AEAFBF",
"k+	c #A0A1B4",
"l+	c #9394A9",
"m+	c #7D7F97",
"n+	c #767892",
"o+	c #59595E",
"p+	c #3E3D37",
"q+	c #33322B",
"r+	c #34332B",
"s+	c #35332C",
"t+	c #33312A",
"u+	c #323129",
"v+	c #35342C",
"w+	c #4E4E4D",
"x+	c #63636F",
"y+	c #75768C",
"z+	c #7E7F98",
"A+	c #9092A7",
"B+	c #A5A6B8",
"C+	c #B1B2C2",
"D+	c #B6B7C6",
"E+	c #B7B8C7",
"F+	c #77788D",
"G+	c #63626E",
"H+	c #4D4D4D",
"I+	c #302F28",
"J+	c #302F29",
"K+	c #313029",
"L+	c #323029",
"M+	c #2F2E26",
"N+	c #2F2E27",
"O+	c #40403B",
"P+	c #57575B",
"Q+	c #6F707E",
"R+	c #7C7D93",
"S+	c #9B9CB0",
"T+	c #AAABBC",
"U+	c #B4B5C4",
"V+	c #B5B6C5",
"W+	c #ACADBE",
"X+	c #9D9FB2",
"Y+	c #8D8EA4",
"Z+	c #7E7F94",
"`+	c #70707F",
" @	c #555559",
".@	c #3D3D38",
"+@	c #2B2A24",
"@@	c #2C2A24",
"#@	c #2D2B24",
"$@	c #2E2D25",
"%@	c #2A2921",
"&@	c #2B2A21",
"*@	c #41403C",
"=@	c #545459",
"-@	c #747582",
";@	c #858799",
">@	c #9496AA",
",@	c #9799AD",
"'@	c #9C9DB1",
")@	c #9A9BAF",
"!@	c #87889B",
"~@	c #757683",
"{@	c #545358",
"]@	c #3E3D3A",
"^@	c #2B2A22",
"/@	c #27261F",
"(@	c #28261F",
"_@	c #292720",
":@	c #2A2820",
"<@	c #29281F",
"[@	c #2A2920",
"}@	c #2A2A20",
"|@	c #302F27",
"1@	c #3F3E3A",
"2@	c #58585A",
"3@	c #6A6A72",
"4@	c #7A7A88",
"5@	c #8A8B9B",
"6@	c #9A9CAC",
"7@	c #9B9CAC",
"8@	c #8A8B9A",
"9@	c #7B7C89",
"0@	c #6B6B73",
"a@	c #3F3D3A",
"b@	c #2F2D26",
"c@	c #29271F",
"d@	c #292820",
"e@	c #2E2D24",
"f@	c #2E2D23",
"g@	c #2F2D23",
"h@	c #2F2E24",
"i@	c #323128",
"j@	c #42423B",
"k@	c #51504D",
"l@	c #605F61",
"m@	c #68696E",
"n@	c #72737A",
"o@	c #67676D",
"p@	c #5F5F61",
"q@	c #504F4D",
"r@	c #41403A",
"s@	c #2E2C23",
"t@	c #2F2D25",
"u@	c #2F2E25",
"v@	c #333329",
"w@	c #343329",
"x@	c #35342A",
"y@	c #35352A",
"z@	c #38382D",
"A@	c #43423A",
"B@	c #55544E",
"C@	c #61615C",
"D@	c #52514B",
"E@	c #414038",
"F@	c #37362C",
"G@	c #34332A",
"H@	c #35342B",
"I@	c #36352C",
"J@	c #35352C",
"K@	c #3B3A30",
"L@	c #3B3A31",
"M@	c #3C3B31",
"N@	c #3C3B32",
"O@	c #3D3B32",
"P@	c #3B3930",
"Q@	c #3A3930",
"R@	c #3C3A31",
"S@	c #3B3A32",
"T@	c #3A3A31",
"U@	c #3C3A33",
"V@	c #3D3B34",
"W@	c #3D3C34",
"X@	c #3E3C34",
"Y@	c #3F3C35",
"Z@	c #403D36",
"`@	c #403E36",
" #	c #413E37",
".#	c #413F38",
"+#	c #45423B",
"@#	c #46433C",
"##	c #47443D",
"$#	c #47443E",
"%#	c #47453E",
"&#	c #48453F",
"*#	c #48453E",
"=#	c #49463F",
"-#	c #494741",
";#	c #4D4B44",
">#	c #4D4A43",
",#	c #4E4C45",
"'#	c #4F4C45",
")#	c #504D46",
"!#	c #504E47",
"~#	c #514E47",
"{#	c #514F48",
"]#	c #524F48",
"^#	c #525049",
"/#	c #585750",
"(#	c #58574F",
"_#	c #585850",
":#	c #57564F",
"<#	c #57564E",
"[#	c #58574E",
"}#	c #57554D",
"|#	c #57564D",
"1#	c #56564D",
"2#	c #59574F",
"3#	c #595750",
"4#	c #5D5C54",
"5#	c #5C5C54",
"6#	c #5C5B53",
"7#	c #5B5A52",
"8#	c #5D5C53",
"9#	c #5C5C53",
"0#	c #5A5A51",
"a#	c #5B5B53",
"b#	c #5D5B54",
"c#	c #5F5E56",
"d#	c #5E5D56",
"e#	c #5E5D55",
"f#	c #5D5D55",
"g#	c #5D5D54",
"h#	c #5E5E55",
"i#	c #5E5E56",
"j#	c #5F5F57",
"k#	c #616058",
"l#	c #606057",
"m#	c #5F5F56",
"n#	c #616158",
"o#	c #636359",
"p#	c #626259",
"q#	c #626359",
"r#	c #626258",
"s#	c #616258",
"t#	c #616157",
"u#	c #606056",
"v#	c #636459",
"w#	c #606157",
"x#	c #626257",
"y#	c #616257",
"z#	c #626358",
"A#	c #606156",
"B#	c #5E6055",
"C#	c #5F6055",
"D#	c #5F5F55",
"E#	c #5E5F55",
"F#	c #5D5E54",
"G#	c #5C5D54",
"H#	c #5C5D53",
"I#	c #5E5E54",
"J#	c #5F5F54",
"K#	c #5E5F53",
"L#	c #5D5E53",
"M#	c #5E5F54",
"N#	c #5C5D52",
"O#	c #5D5D53",
"P#	c #5B5C52",
"Q#	c #5A5B51",
"R#	c #595A50",
"S#	c #585950",
"T#	c #5A5B50",
"U#	c #5B5C51",
"V#	c #5B5C50",
"W#	c #5A5B4F",
"X#	c #5B5D51",
"Y#	c #595A4F",
"Z#	c #595B4F",
". + @ # $ # $ $ % % & * = - ; ; > , , - - - . . ",
"' ) ! ~ ~ { ! ] ^ / ( _ : < [ } } ' ' } ' ' ' ) ",
"| 1 2 2 2 3 4 5 6 7 8 9 0 a b c d e e e f e | 2 ",
"g g g g h i j k l m n o p q r s t 2 u u u v w x ",
"y z z x A B C D E F G G F H I J K L M N O P Q R ",
"S S T U V W X Y Z `  . .` ..Y +.W @.#.$.%.&.*.=.",
"-.-.&.;.>.,.'.).!.~.{.{.` ].^.'./.(._.-.:.:.<.[.",
"}.}.|.1.2.3.4.5.6...7.8.9.0.a.3.b.c.d.e.f.f.g.h.",
"f.i.j.k.l.m.n.o.p.q.r.r.s.t.u.v.w.x.y.z.A.A.B.C.",
"D.E.F.G.H.I.J.K.L.M.N.O.P.Q.R.J.I.S.T.U.V.V.W.W.",
"X.X.Y.Z.`. +.+N.++@+#+$+%+&+O.*+ +=+-+;+>+,+'+)+",
"!+!+~+{+]+^+/+(+_+:+<+<+[+}+|+1+2+3+4+5+6+7+8+9+",
"0+a+b+c+d+e+f+g+h+i+j+j+i+k+l+m+n+d+o+p+q+q+r+s+",
"t+u+v+w+x+y+z+A+B+C+D+E+C+` l+6.F+G+H+q+I+J+K+L+",
"M+M+N+O+P+Q+R+9.S+T+U+V+W+X+Y+Z+`+ @.@+@+@@@#@$@",
"%@%@&@M+*@=@-@;@>@,@'@X+)@,@!@~@{@]@^@/@/@(@_@:@",
"<@<@[@}@|@1@2@3@4@5@6@7@8@9@0@2@a@b@c@c@_@d@%@&@",
"e@f@g@h@h@i@j@k@l@m@n@n@o@p@q@r@|@s@e@e@$@t@u@u@",
"v@w@w@w@x@x@y@z@A@B@C@C@D@E@F@w@G@x@H@H@a+I@I@J@",
"K@K@K@K@L@M@M@N@O@M@L@P@Q@P@Q@Q@P@K@P@P@R@'+S@T@",
"U@V@W@X@X@X.Y@Y@Y@Y@X.X.Y@V.V.Z@W.`@Z@W. #.#.#.#",
"+#+#+#h.h.@#i.i.i.@#@#@###$#%#&#&#*#*#&#=#<.<.-#",
";#>#;#;#,#&.,#,#'#'#'#'#)#!#~#{#~#!#!#{#]#^#^#^#",
"/#(#(#(#_#(#:#<#[#<#}#|#<#[#[#|#1#|#<#2#2#3#2#/#",
"4#4#4#4#4#5#6#6#6#7#7#7#6#8#9#7#0#7#a#b#4#4#6#6#",
"c#c#c#c#c#d#e#f#g#f#e#h#h#i#h#g#g#g#h#c#c#h#f#4#",
"i#e#e#i#c#c#c#h#c#j#k#k#k#k#k#l#l#l#l#l#l#m#h#h#",
"l#l#l#l#l#l#l#l#n#n#o#o#o#p#p#p#q#q#q#r#s#t#u#u#",
"s#s#s#n#r#s#s#s#s#p#o#o#o#o#q#o#v#o#o#r#n#t#n#t#",
"s#s#s#s#n#n#w#w#w#n#s#r#x#t#y#z#z#r#t#u#u#A#w#u#",
"B#C#D#E#E#F#F#G#H#g#I#J#K#L#M#C#C#M#L#N#H#L#L#O#",
"H#N#N#P#P#Q#R#R#S#R#T#U#V#W#V#X#X#T#Y#Y#Z#T#T#R#"};
