#define close_width 16
#define close_height 16
static unsigned char close_bits[] = {
   0xff, 0xff, 0xfb, 0xde, 0xf5, 0xae, 0x63, 0xc7, 0xc7, 0xe3, 0x8f, 0xf1,
   0x1f, 0xf8, 0x3d, 0xec, 0x33, 0x9c, 0x1f, 0xf8, 0x8f, 0xf1, 0xc7, 0xe3,
   0xe3, 0xc6, 0xf5, 0xae, 0x7b, 0xdf, 0xff, 0xff};
