#define close_width 22
#define close_height 22
static unsigned char close_bits[] = {
   0xff, 0xff, 0xff, 0x01, 0x00, 0xe0, 0xfd, 0xff, 0xef, 0x05, 0x00, 0xe8,
   0xf5, 0xff, 0xeb, 0xf5, 0xff, 0xeb, 0x35, 0x3f, 0xeb, 0x35, 0x1e, 0xeb,
   0x75, 0x8c, 0xeb, 0xf5, 0xc0, 0xeb, 0xf5, 0xe1, 0xeb, 0xf5, 0xe1, 0xeb,
   0xf5, 0xc0, 0xeb, 0x75, 0x8c, 0xeb, 0x35, 0x1e, 0xeb, 0x35, 0x3f, 0xeb,
   0xf5, 0xff, 0xeb, 0xf5, 0xff, 0xeb, 0x05, 0x00, 0xe8, 0xfd, 0xff, 0xef,
   0x01, 0x00, 0xe0, 0xff, 0xff, 0xff};
