/* XPM */
static char * close_button_xpm[] = {
"24 32 593 2",
"  	c None",
". 	c #6C6E71",
"+ 	c #6E7073",
"@ 	c #717376",
"# 	c #74767A",
"$ 	c #78797D",
"% 	c #7B7D80",
"& 	c #7F8185",
"* 	c #85888A",
"= 	c #8C8F91",
"- 	c #909397",
"; 	c #95989B",
"> 	c #999B9F",
", 	c #989A9E",
"' 	c #999CA1",
") 	c #989CA1",
"! 	c #96999E",
"~ 	c #999BA0",
"{ 	c #9C9EA4",
"] 	c #999CA2",
"^ 	c #9A9CA0",
"/ 	c #999C9F",
"( 	c #6C6E72",
"_ 	c #6F7074",
": 	c #737578",
"< 	c #76797C",
"[ 	c #7A7D80",
"} 	c #7E8184",
"| 	c #84868A",
"1 	c #8B8E91",
"2 	c #929597",
"3 	c #95979B",
"4 	c #999C9E",
"5 	c #9B9EA2",
"6 	c #9B9EA3",
"7 	c #9DA0A5",
"8 	c #9C9FA4",
"9 	c #9B9DA2",
"0 	c #9EA0A6",
"a 	c #9C9EA3",
"b 	c #9C9FA3",
"c 	c #737579",
"d 	c #75777A",
"e 	c #787B7E",
"f 	c #7D7F82",
"g 	c #828488",
"h 	c #888B8F",
"i 	c #919398",
"j 	c #98999E",
"k 	c #9DA0A4",
"l 	c #A0A3A8",
"m 	c #A2A5AA",
"n 	c #A3A5AA",
"o 	c #A4A6AC",
"p 	c #A3A6AB",
"q 	c #A2A4AA",
"r 	c #A1A3A9",
"s 	c #A1A4A9",
"t 	c #A3A6AA",
"u 	c #A4A7AC",
"v 	c #77797C",
"w 	c #797A7E",
"x 	c #7D8083",
"y 	c #85878B",
"z 	c #8C8E93",
"A 	c #94959A",
"B 	c #9E9FA3",
"C 	c #A4A4AA",
"D 	c #A5A7AD",
"E 	c #A5A8AD",
"F 	c #A7A9AF",
"G 	c #AAABB1",
"H 	c #A9ABB1",
"I 	c #A8AAB0",
"J 	c #A8AAAF",
"K 	c #A7AAAF",
"L 	c #A7AAB0",
"M 	c #A6A9AF",
"N 	c #AAACB2",
"O 	c #77797D",
"P 	c #7A7C80",
"Q 	c #818387",
"R 	c #898C90",
"S 	c #929499",
"T 	c #A7A8AE",
"U 	c #A8AAAE",
"V 	c #ABA9AD",
"W 	c #ADAEAD",
"X 	c #ABAAAD",
"Y 	c #ABADAD",
"Z 	c #AAACB0",
"` 	c #A9ABB0",
" .	c #A9ACB2",
"..	c #ABADB3",
"+.	c #A8ABB1",
"@.	c #A8ACB0",
"#.	c #AAADB2",
"$.	c #ACAEB5",
"%.	c #AEB0B7",
"&.	c #7D7F83",
"*.	c #828388",
"=.	c #8A8D91",
"-.	c #94959B",
";.	c #9EA0A5",
">.	c #ADACB2",
",.	c #848684",
"'.	c #525152",
").	c #292C29",
"!.	c #100C10",
"~.	c #081008",
"{.	c #312831",
"].	c #525552",
"^.	c #ACAEB1",
"/.	c #B2B4BA",
"(.	c #B1B3B9",
"_.	c #B0B2B8",
":.	c #B1B3BA",
"<.	c #B4B6BC",
"[.	c #B2B5BB",
"}.	c #B3B5BC",
"|.	c #818287",
"1.	c #87898E",
"2.	c #9D9FA5",
"3.	c #AAABAF",
"4.	c #636563",
"5.	c #4A4542",
"6.	c #7B7573",
"7.	c #9C928C",
"8.	c #9C8E94",
"9.	c #6B656B",
"0.	c #B0B0B4",
"a.	c #B6B8BE",
"b.	c #B8B9C0",
"c.	c #B6B8BF",
"d.	c #B6B9BF",
"e.	c #B5B7BD",
"f.	c #B8BAC0",
"g.	c #85868C",
"h.	c #8E9095",
"i.	c #AFB1B4",
"j.	c #211818",
"k.	c #6B555A",
"l.	c #AD9A9C",
"m.	c #D6CBCE",
"n.	c #E7DFDE",
"o.	c #E7E3DE",
"p.	c #B5B3BA",
"q.	c #BCBEC4",
"r.	c #BABCC3",
"s.	c #B9BBC2",
"t.	c #B9BCC3",
"u.	c #BABDC4",
"v.	c #BBBEC5",
"w.	c #898B8F",
"x.	c #94949A",
"y.	c #A1A3A8",
"z.	c #AFB1B7",
"A.	c #848284",
"B.	c #312429",
"C.	c #5A3831",
"D.	c #9C6D6B",
"E.	c #CE969C",
"F.	c #D6B2AD",
"G.	c #DEB2B5",
"H.	c #C69694",
"I.	c #9C696B",
"J.	c #633439",
"K.	c #312821",
"L.	c #BCBEC5",
"M.	c #BCBDC4",
"N.	c #BDBFC6",
"O.	c #8D8F94",
"P.	c #999AA0",
"Q.	c #A7A8AF",
"R.	c #B0B1B5",
"S.	c #635D63",
"T.	c #4A1C18",
"U.	c #8C3439",
"V.	c #AD3C42",
"W.	c #BD5552",
"X.	c #C6615A",
"Y.	c #BD655A",
"Z.	c #BD615A",
"`.	c #BD5152",
" +	c #A53C39",
".+	c #843839",
"++	c #521C21",
"@+	c #B6BABC",
"#+	c #C1C3CA",
"$+	c #C2C3CB",
"%+	c #C0C2C9",
"&+	c #A1A2A8",
"*+	c #AEB1B7",
"=+	c #392C29",
"-+	c #732429",
";+	c #9C2421",
">+	c #B52421",
",+	c #BD3831",
"'+	c #C64542",
")+	c #C64942",
"!+	c #BD4939",
"~+	c #BD3431",
"{+	c #A52029",
"]+	c #732829",
"^+	c #423029",
"/+	c #ADABB0",
"(+	c #C3C6CC",
"_+	c #C4C6CE",
":+	c #C1C4CA",
"<+	c #BFC1C9",
"[+	c #9A9CA3",
"}+	c #AAABB3",
"|+	c #B9BAC3",
"1+	c #A5AAA7",
"2+	c #420C10",
"3+	c #942431",
"4+	c #B52821",
"5+	c #C63831",
"6+	c #C64D39",
"7+	c #CE5952",
"8+	c #D6615A",
"9+	c #D66152",
"0+	c #D65952",
"a+	c #C64D42",
"b+	c #B52C21",
"c+	c #942429",
"d+	c #4A0C10",
"e+	c #A6AAA7",
"f+	c #CACCD4",
"g+	c #CCCED6",
"h+	c #CACBD4",
"i+	c #C8C9D2",
"j+	c #C8CAD3",
"k+	c #A0A1A7",
"l+	c #AFB1BA",
"m+	c #BFC0C8",
"n+	c #ADAAAE",
"o+	c #5A1010",
"p+	c #A52C29",
"q+	c #C64139",
"r+	c #CE514A",
"s+	c #DE615A",
"t+	c #E76D6B",
"u+	c #E7796B",
"v+	c #EF7973",
"w+	c #E7756B",
"x+	c #E76563",
"y+	c #D6554A",
"z+	c #CE4139",
"A+	c #A52829",
"B+	c #521010",
"C+	c #ADAAAF",
"D+	c #CACBD2",
"E+	c #CBCCD3",
"F+	c #C9CBD1",
"G+	c #C9CBD2",
"H+	c #A0A2A7",
"I+	c #B3B4B9",
"J+	c #C1C1C8",
"K+	c #AEAFB0",
"L+	c #6B3842",
"M+	c #A53029",
"N+	c #CE554A",
"O+	c #DE695A",
"P+	c #F77573",
"Q+	c #EF867B",
"R+	c #F78E84",
"S+	c #EF796B",
"T+	c #E76963",
"U+	c #A53429",
"V+	c #733842",
"W+	c #B0B4B2",
"X+	c #CFD0D6",
"Y+	c #D0D1D7",
"Z+	c #CECFD6",
"`+	c #CCCED5",
" @	c #A8A9AF",
".@	c #BABBC2",
"+@	c #C7C9CF",
"@@	c #C0C2C7",
"#@	c #7B716B",
"$@	c #F7867B",
"%@	c #F7928C",
"&@	c #FF9A94",
"*@	c #F79E94",
"=@	c #FF928C",
"-@	c #9C2821",
";@	c #847173",
">@	c #C3C6C8",
",@	c #D5D5DC",
"'@	c #D3D4DA",
")@	c #D6D6DC",
"!@	c #D2D4DB",
"~@	c #D1D2DA",
"{@	c #ACACB4",
"]@	c #BEBEC7",
"^@	c #CACAD3",
"/@	c #CDCED6",
"(@	c #A5A2A5",
"_@	c #7B3831",
":@	c #C65552",
"<@	c #EF827B",
"[@	c #F7968C",
"}@	c #F7A294",
"|@	c #F7AA9C",
"1@	c #F7A29C",
"2@	c #CE5D52",
"3@	c #843439",
"4@	c #A5A6A5",
"5@	c #D5D6DE",
"6@	c #D8D9E1",
"7@	c #D8D9E0",
"8@	c #D8DBE1",
"9@	c #D6D8E0",
"0@	c #D4D5DE",
"a@	c #AEAFB5",
"b@	c #CDCDD7",
"c@	c #D2D3DD",
"d@	c #CACCD1",
"e@	c #948A8C",
"f@	c #8C3029",
"g@	c #DE6D6B",
"h@	c #EF9A8C",
"i@	c #F7A6A5",
"j@	c #FFB2AD",
"k@	c #F7B6AD",
"l@	c #F7AE9C",
"m@	c #EF9A94",
"n@	c #DE7573",
"o@	c #943029",
"p@	c #D0D1D6",
"q@	c #DADCE5",
"r@	c #DCDCE4",
"s@	c #DCDDE5",
"t@	c #DADCE4",
"u@	c #DADCE3",
"v@	c #DADBE4",
"w@	c #ABACB3",
"x@	c #BDBEC6",
"y@	c #CED0D9",
"z@	c #D2D4DD",
"A@	c #C8CECD",
"B@	c #948E8C",
"C@	c #84554A",
"D@	c #AD615A",
"E@	c #C68A7B",
"F@	c #DE9E94",
"G@	c #DEA694",
"H@	c #CE8A84",
"I@	c #AD655A",
"J@	c #84594A",
"K@	c #948E94",
"L@	c #C7CCCC",
"M@	c #D1D3DB",
"N@	c #CFD1D9",
"O@	c #D0D2DA",
"P@	c #CECFD7",
"Q@	c #CECFD8",
"R@	c #9D9EA7",
"S@	c #ACAEB9",
"T@	c #BBBDC8",
"U@	c #C2C3CF",
"V@	c #C3C4D0",
"W@	c #C5C5CC",
"X@	c #C6BEC6",
"Y@	c #8C867B",
"Z@	c #845D5A",
"`@	c #7B4D4A",
" #	c #844D4A",
".#	c #8C615A",
"+#	c #948284",
"@#	c #C6C3C6",
"##	c #C7C8CF",
"$#	c #C8C9D4",
"%#	c #C7C9D3",
"&#	c #C9C9D3",
"*#	c #C7C8D2",
"=#	c #C7C8D1",
"-#	c #CACAD4",
";#	c #9F9EA6",
">#	c #AEADB5",
",#	c #BABAC3",
"'#	c #C3C3CB",
")#	c #C6C6D0",
"!#	c #C7C7D0",
"~#	c #C7C6D0",
"{#	c #C5C5CE",
"]#	c #C7C7CE",
"^#	c #D0D1D3",
"/#	c #D6DBD6",
"(#	c #DCD9DC",
"_#	c #CBD2CE",
":#	c #C8C6CE",
"<#	c #C5C4CE",
"[#	c #C7C7D1",
"}#	c #C6C8D0",
"|#	c #C4C5CE",
"1#	c #C5C5CF",
"2#	c #C6C6CF",
"3#	c #95979D",
"4#	c #A3A4AB",
"5#	c #B1B2BA",
"6#	c #B8BBC3",
"7#	c #BEBFC7",
"8#	c #C0C2CA",
"9#	c #BDC0C8",
"0#	c #BDC0C6",
"a#	c #BEC1C8",
"b#	c #BFC1C8",
"c#	c #BFC2CA",
"d#	c #C0C3CA",
"e#	c #BFC2C9",
"f#	c #BFC3C9",
"g#	c #BDC1C8",
"h#	c #BEC1C7",
"i#	c #93979A",
"j#	c #A1A4A8",
"k#	c #ADB2B5",
"l#	c #B8BBBF",
"m#	c #BBC0C4",
"n#	c #BDC1C6",
"o#	c #BCC0C5",
"p#	c #BFC3C8",
"q#	c #BBBFC4",
"r#	c #BBBEC3",
"s#	c #B8BCC1",
"t#	c #B8BBC0",
"u#	c #B9BDC2",
"v#	c #B9BCC2",
"w#	c #B7BAC0",
"x#	c #B7BBC0",
"y#	c #B6BABE",
"z#	c #B5B8BE",
"A#	c #84858A",
"B#	c #909298",
"C#	c #9FA0A8",
"D#	c #A8AAB1",
"E#	c #ADAFB6",
"F#	c #AFB1B8",
"G#	c #B0B2BA",
"H#	c #B0B2B9",
"I#	c #AEB1B8",
"J#	c #AEB2BA",
"K#	c #B0B3BA",
"L#	c #AEAFB7",
"M#	c #AFB2B9",
"N#	c #AEB0B8",
"O#	c #ADAFB7",
"P#	c #ADAEB5",
"Q#	c #7B7B82",
"R#	c #85868D",
"S#	c #91929A",
"T#	c #9A9AA3",
"U#	c #A1A2AA",
"V#	c #A4A5AD",
"W#	c #A7A8B0",
"X#	c #A5A6AE",
"Y#	c #A4A5AE",
"Z#	c #A4A6AF",
"`#	c #A6A8B0",
" $	c #A5A7B0",
".$	c #A3A4AE",
"+$	c #A2A3AD",
"@$	c #A3A5AE",
"#$	c #A4A4AD",
"$$	c #A6A7B0",
"%$	c #A5A5AE",
"&$	c #A3A4AD",
"*$	c #A2A4AD",
"=$	c #A3A5AD",
"-$	c #737378",
";$	c #797A80",
">$	c #84848B",
",$	c #8E8E96",
"'$	c #97979F",
")$	c #9D9DA5",
"!$	c #A0A0A8",
"~$	c #A1A1AA",
"{$	c #A2A1AB",
"]$	c #A5A3AD",
"^$	c #A5A4AD",
"/$	c #A4A3AC",
"($	c #A3A2AC",
"_$	c #A5A4AE",
":$	c #A7A6B0",
"<$	c #A8A7B1",
"[$	c #A8A6B0",
"}$	c #A1A2A9",
"|$	c #A2A4AB",
"1$	c #A2A3AA",
"2$	c #A4A5AC",
"3$	c #75767B",
"4$	c #7A7C81",
"5$	c #84858B",
"6$	c #8F9096",
"7$	c #9899A0",
"8$	c #9D9FA6",
"9$	c #A0A2A9",
"0$	c #A3A5AC",
"a$	c #A1A3AB",
"b$	c #A1A3AA",
"c$	c #A2A3AB",
"d$	c #A2A2AA",
"e$	c #A3A4AC",
"f$	c #727278",
"g$	c #77787E",
"h$	c #7E7F86",
"i$	c #87888F",
"j$	c #919299",
"k$	c #9A9BA2",
"l$	c #9E9FA7",
"m$	c #9C9DA5",
"n$	c #9C9CA5",
"o$	c #9E9EA7",
"p$	c #9D9DA6",
"q$	c #9E9EA8",
"r$	c #9C9CA6",
"s$	c #9D9DA7",
"t$	c #9E9DA7",
"u$	c #9F9FA9",
"v$	c #A0A0AA",
"w$	c #707076",
"x$	c #73737A",
"y$	c #7A7980",
"z$	c #818189",
"A$	c #8A8A92",
"B$	c #92929B",
"C$	c #9897A0",
"D$	c #9B9AA5",
"E$	c #9C9BA5",
"F$	c #9C9DA6",
"G$	c #9D9CA6",
"H$	c #A09FA9",
"I$	c #A0A0A9",
"J$	c #6E6E75",
"K$	c #717178",
"L$	c #76757D",
"M$	c #83838A",
"N$	c #8B8B94",
"O$	c #92919A",
"P$	c #9796A0",
"Q$	c #9B9AA3",
"R$	c #9B9BA5",
"S$	c #9E9DA8",
"T$	c #717077",
"U$	c #78787E",
"V$	c #7D7D85",
"W$	c #84838B",
"X$	c #8C8B94",
"Y$	c #96969F",
"Z$	c #9A9AA4",
"`$	c #9A99A4",
" %	c #9D9CA8",
".%	c #9B9AA4",
"+%	c #9B9BA6",
"@%	c #9E9DA6",
"#%	c #707078",
"$%	c #727178",
"%%	c #74737B",
"&%	c #77777E",
"*%	c #7B7A82",
"=%	c #898891",
"-%	c #908E97",
";%	c #94949C",
">%	c #9B9BA4",
",%	c #9D9CA7",
"'%	c #9F9FAA",
")%	c #A1A1AC",
"!%	c #A1A0AB",
"~%	c #9F9EA9",
"{%	c #A09EAA",
"]%	c #A19FAA",
"^%	c #A2A1AD",
"/%	c #A3A2AD",
"(%	c #A2A1AC",
"_%	c #A3A3AD",
":%	c #74737A",
"<%	c #76747C",
"[%	c #797880",
"}%	c #7C7B83",
"|%	c #7F7E86",
"1%	c #84828B",
"2%	c #8F8E97",
"3%	c #96959D",
"4%	c #9E9CA5",
"5%	c #A4A4B0",
"6%	c #A7A5B2",
"7%	c #A4A3AE",
"8%	c #A5A4B0",
"9%	c #A8A6B2",
"0%	c #A8A7B2",
"a%	c #A7A6B1",
"b%	c #A7A5B1",
". + @ # $ % & * = - ; > , ' ) ! ~ { ] ' ' ' ^ / ",
"( _ : < [ } | 1 2 3 4 5 6 7 8 9 8 0 a 8 8 8 b 8 ",
"c d e f g h i j 9 k l m n m o p q r q s r q t u ",
"v w x y z A B C D E F G H I I J I I I K L M K N ",
"O P Q R S 6 p T U V W X Y Z ` H  ...+.@.#...$.%.",
"&.*.=.-.;.F >.,.'.).!.~.{.].,.^./.(._.:.<.[.}.[.",
"|.1.S 2.F 3.4.).5.6.7.8.6.5.).9.0.a.b.c.d.e.a.f.",
"g.h.9 F i.4.j.k.l.m.n.o.m.l.k.j.4.p.q.r.s.t.u.v.",
"w.x.y.z.A.B.C.D.E.F.G.G.F.H.I.J.K.,.r.L.M.N.N.N.",
"O.P.Q.R.S.T.U.V.W.X.Y.X.Z.`. +.+++S.@+#+$+$+%+%+",
"-.&+*+X =+-+;+>+,+'+)+)+!+~+>+{+]+^+/+(+_+:+%+<+",
"[+}+|+1+2+3+4+5+6+7+8+9+0+a+5+b+c+d+e+f+g+h+i+j+",
"k+l+m+n+o+p+q+r+s+t+u+v+w+x+y+z+A+B+C+D+E+F+D+G+",
"H+I+J+K+L+M+N+O+P+Q+R+R+Q+S+T+N+U+V+W+X+X+Y+Z+`+",
" @.@+@@@#@A+8+S+$@%@&@*@=@$@v+s+-@;@>@,@'@)@!@~@",
"{@]@^@/@(@_@:@<@[@}@|@|@1@[@$@2@3@4@5@6@7@8@9@0@",
"a@%+b@c@d@e@f@g@h@i@j@k@l@m@n@o@e@p@q@r@s@t@u@v@",
"w@x@h+y@z@A@B@C@D@E@F@G@H@I@J@K@L@M@N@O@O@P@Q@Q@",
"R@S@T@U@V@V@W@X@Y@Z@`@ #.#+#@###$#%#$#&#*#=#i+-#",
";#>#,#'#)#!#~#{#]#^#/#(#_#:#{#=#)#<#[#}#_+|#1#2#",
"3#4#5#6#7#8#9#0#a#b#c#d#a#a#e#e#a#a#d#f#g#h#h#b#",
"i#j#k#l#m#n#o#n#p#n#n#o#q#r#r#s#t#u#v#t#w#x#y#z#",
"A#B#C#D#E#F#:.G#H#I#J#K#F#F#F#E#L#M#N#O#%.N#E#P#",
"Q#R#S#T#U#V#W#X#Y#Z#`# $.$+$@$#$Z#$$%$Y#&$*$=$Y#",
"-$;$>$,$'$)$!$~${$]$^$%$/$($_$:$<$[$q }$q |$1$2$",
"3$4$5$6$7$8$9$1$0$0$q a$b$9$}$c$4#1$c$c$U#U#d$e$",
"f$g$h$i$j$k$)$C#U#l$m$n$o$p$p$R@q$r$s$t$t$u$v$~$",
"w$x$y$z$A$B$C$D$o$n$E$n$F$r$s$p$s$G$s$F$G$H$v$I$",
"J$K$L$Q#M$N$O$P$Q$T#E$r$R$r$s$E$R$r$G$r$S$R@G$s$",
"J$T$x$U$V$W$X$B$Y$T#Z$`$r$ %t$D$.%+%r$q$v$@%r$s$",
"#%$%%%&%*%z$=%-%;%>%r$,%'%)%!%~%{%]%^%/%(%!%(%_%",
":%<%[%}%|%1%=%2%3%4%H$^%5%6%6%7%8%9%0%0%a%b%:$a%"};
