#define resize_width 22
#define resize_height 22
static unsigned char resize_bits[] = {
   0xff, 0xff, 0xff, 0x01, 0x00, 0xe0, 0xfd, 0xff, 0xef, 0x05, 0x00, 0xe8,
   0xf5, 0xff, 0xeb, 0xf5, 0xf3, 0xeb, 0xf5, 0xe1, 0xeb, 0xf5, 0xf3, 0xeb,
   0xf5, 0xf3, 0xeb, 0xb5, 0x61, 0xeb, 0x15, 0x00, 0xea, 0x15, 0x00, 0xea,
   0xb5, 0x61, 0xeb, 0xf5, 0xf3, 0xeb, 0xf5, 0xf3, 0xeb, 0xf5, 0xe1, 0xeb,
   0xf5, 0xf3, 0xeb, 0xf5, 0xff, 0xeb, 0x05, 0x00, 0xe8, 0xfd, 0xff, 0xef,
   0x01, 0x00, 0xe0, 0xff, 0xff, 0xff};
