/* XPM */
static char * resize_button_xpm[] = {
"24 32 431 2",
"  	c None",
". 	c #65625E",
"+ 	c #64625D",
"@ 	c #63615C",
"# 	c #62605B",
"$ 	c #625F5B",
"% 	c #625F5C",
"& 	c #63605D",
"* 	c #63615D",
"= 	c #64615D",
"- 	c #65625D",
"; 	c #66635E",
"> 	c #65635D",
", 	c #64625C",
"' 	c #625F5A",
") 	c #615E5A",
"! 	c #605E59",
"~ 	c #605D58",
"{ 	c #615E59",
"] 	c #65635F",
"^ 	c #6C6D67",
"/ 	c #74756F",
"( 	c #777A74",
"_ 	c #797C75",
": 	c #787B74",
"< 	c #7A7D75",
"[ 	c #797C74",
"} 	c #75776F",
"| 	c #6E6E68",
"1 	c #676560",
"2 	c #63615B",
"3 	c #5D5A55",
"4 	c #5C5A55",
"5 	c #5C5954",
"6 	c #5E5C57",
"7 	c #65645E",
"8 	c #6B6F67",
"9 	c #6E766B",
"0 	c #6C786A",
"a 	c #6B796A",
"b 	c #6B7869",
"c 	c #6D796B",
"d 	c #6F776C",
"e 	c #6C7067",
"f 	c #65665F",
"g 	c #605D57",
"h 	c #5D5B55",
"i 	c #585550",
"j 	c #595751",
"k 	c #61615B",
"l 	c #686E64",
"m 	c #6E796C",
"n 	c #708171",
"o 	c #768A78",
"p 	c #7C917E",
"q 	c #7D927F",
"r 	c #7E927F",
"s 	c #7F9380",
"t 	c #708271",
"u 	c #6E7A6D",
"v 	c #696E65",
"w 	c #62625C",
"x 	c #595852",
"y 	c #57554F",
"z 	c #56544E",
"A 	c #54524C",
"B 	c #54514C",
"C 	c #5C5B55",
"D 	c #646960",
"E 	c #6C786B",
"F 	c #6E826F",
"G 	c #778C78",
"H 	c #849885",
"I 	c #8D9F8F",
"J 	c #8FA191",
"K 	c #8FA190",
"L 	c #849886",
"M 	c #778D79",
"N 	c #6E836F",
"O 	c #6C796A",
"P 	c #64695F",
"Q 	c #5B5A53",
"R 	c #52504A",
"S 	c #514F49",
"T 	c #504E48",
"U 	c #63655D",
"V 	c #667063",
"W 	c #687B68",
"X 	c #6E856F",
"Y 	c #879B88",
"Z 	c #A4B4A5",
"` 	c #B5C2B6",
" .	c #B9C6BA",
"..	c #B9C5BA",
"+.	c #879A88",
"@.	c #6D846F",
"#.	c #697C68",
"$.	c #657063",
"%.	c #61635B",
"&.	c #4D4B45",
"*.	c #4D4A44",
"=.	c #4B4943",
"-.	c #6C7368",
";.	c #647363",
">.	c #647B66",
",.	c #8B9F8D",
"'.	c #B0BEB1",
").	c #B2BFB3",
"!.	c #B2BFB2",
"~.	c #8B9E8C",
"{.	c #6C846E",
"].	c #647B65",
"^.	c #6B7368",
"/.	c #494640",
"(.	c #48463F",
"_.	c #484640",
":.	c #738072",
"<.	c #657765",
"[.	c #5D765F",
"}.	c #677F68",
"|.	c #7A917C",
"1.	c #889C89",
"2.	c #8DA18F",
"3.	c #8EA18F",
"4.	c #8EA28F",
"5.	c #879C89",
"6.	c #7A907B",
"7.	c #667E68",
"8.	c #5D775F",
"9.	c #657966",
"0.	c #748173",
"a.	c #45433C",
"b.	c #45423C",
"c.	c #46443D",
"d.	c #46433D",
"e.	c #7A8A7B",
"f.	c #667C68",
"g.	c #577159",
"h.	c #627B63",
"i.	c #6D856F",
"j.	c #768D78",
"k.	c #7B917D",
"l.	c #7B927D",
"m.	c #7B917C",
"n.	c #768D77",
"o.	c #617B63",
"p.	c #577259",
"q.	c #677C68",
"r.	c #7A8B7B",
"s.	c #424038",
"t.	c #423F38",
"u.	c #42403A",
"v.	c #43413A",
"w.	c #7E917F",
"x.	c #697F6A",
"y.	c #587259",
"z.	c #677F69",
"A.	c #728973",
"B.	c #809682",
"C.	c #829784",
"D.	c #829783",
"E.	c #819783",
"F.	c #7C937E",
"G.	c #738A75",
"H.	c #678069",
"I.	c #58725A",
"J.	c #68806A",
"K.	c #7D907F",
"L.	c #403E37",
"M.	c #3E3C35",
"N.	c #7F9281",
"O.	c #6D836E",
"P.	c #607962",
"Q.	c #738A74",
"R.	c #8B9F8C",
"S.	c #91A492",
"T.	c #93A694",
"U.	c #91A593",
"V.	c #8CA08E",
"W.	c #829884",
"X.	c #748B76",
"Y.	c #607A62",
"Z.	c #7F9381",
"`.	c #3C3A32",
" +	c #3D3B33",
".+	c #39372F",
"++	c #7F8F7F",
"@+	c #728572",
"#+	c #7E9480",
"$+	c #8FA390",
"%+	c #99AC9B",
"&+	c #9FB1A1",
"*+	c #A2B3A3",
"=+	c #A1B2A3",
"-+	c #A1B2A2",
";+	c #A0B1A1",
">+	c #9BAD9C",
",+	c #7F9581",
"'+	c #718572",
")+	c #393730",
"!+	c #393830",
"~+	c #36352D",
"{+	c #36342C",
"]+	c #778376",
"^+	c #728371",
"/+	c #778E79",
"(+	c #869A87",
"_+	c #9BAC9C",
":+	c #A6B6A7",
"<+	c #ABBBAC",
"[+	c #ADBCAE",
"}+	c #9CAE9D",
"|+	c #798F7A",
"1+	c #728472",
"2+	c #778377",
"3+	c #34332B",
"4+	c #35332C",
"5+	c #33312A",
"6+	c #323129",
"7+	c #696F65",
"8+	c #6D7C6D",
"9+	c #9FB0A0",
"0+	c #AEBDAF",
"a+	c #B4C2B5",
"b+	c #B6C4B7",
"c+	c #B6C3B7",
"d+	c #AFBDB0",
"e+	c #8A9E8B",
"f+	c #7F9481",
"g+	c #6E7C6E",
"h+	c #686F66",
"i+	c #313029",
"j+	c #323029",
"k+	c #2F2E26",
"l+	c #50544C",
"m+	c #7C8C7C",
"n+	c #859A87",
"o+	c #96A898",
"p+	c #A8B8A9",
"q+	c #B2C0B3",
"r+	c #B5C3B6",
"s+	c #B3C1B4",
"t+	c #AAB9AB",
"u+	c #99AB9A",
"v+	c #7D8E7E",
"w+	c #656E63",
"x+	c #4F514A",
"y+	c #2D2B24",
"z+	c #2E2D25",
"A+	c #2A2921",
"B+	c #3A3A31",
"C+	c #53584D",
"D+	c #727D70",
"E+	c #859686",
"F+	c #8FA291",
"G+	c #96A897",
"H+	c #9AAB9B",
"I+	c #9CAD9D",
"J+	c #9AAC9C",
"K+	c #97A998",
"L+	c #92A493",
"M+	c #879887",
"N+	c #737E71",
"O+	c #50554C",
"P+	c #383730",
"Q+	c #292720",
"R+	c #2A2820",
"S+	c #29281F",
"T+	c #2D2C23",
"U+	c #3E4036",
"V+	c #585D52",
"W+	c #727C6F",
"X+	c #849284",
"Y+	c #93A395",
"Z+	c #9FAD9F",
"`+	c #A2B2A3",
" @	c #A2B1A3",
".@	c #A2B1A2",
"+@	c #A1B1A2",
"@@	c #9FAE9F",
"#@	c #94A494",
"$@	c #869485",
"%@	c #737C70",
"&@	c #585C52",
"*@	c #3D3D36",
"=@	c #2C2B23",
"-@	c #2B2A21",
";@	c #2E2D24",
">@	c #2E2D23",
",@	c #2F2D23",
"'@	c #333229",
")@	c #44443B",
"!@	c #585B51",
"~@	c #6A7065",
"{@	c #737B6E",
"]@	c #778174",
"^@	c #788275",
"/@	c #768073",
"(@	c #717A6E",
"_@	c #575B51",
":@	c #43443B",
"<@	c #32312A",
"[@	c #2F2D25",
"}@	c #2F2E25",
"|@	c #333329",
"1@	c #343329",
"2@	c #37362C",
"3@	c #3F3F35",
"4@	c #4E5046",
"5@	c #5E6057",
"6@	c #676960",
"7@	c #6A6C63",
"8@	c #696B62",
"9@	c #696B61",
"0@	c #686A61",
"a@	c #66685F",
"b@	c #5D5E56",
"c@	c #4E4E45",
"d@	c #3F3F36",
"e@	c #37362D",
"f@	c #36352C",
"g@	c #35352C",
"h@	c #3B3A30",
"i@	c #3B3A31",
"j@	c #3C3B31",
"k@	c #3C3B32",
"l@	c #3D3B32",
"m@	c #3B3930",
"n@	c #3A3930",
"o@	c #3C3A31",
"p@	c #3B3A32",
"q@	c #3C3A33",
"r@	c #3D3B34",
"s@	c #3D3C34",
"t@	c #3E3C34",
"u@	c #3F3C35",
"v@	c #3F3D36",
"w@	c #403D36",
"x@	c #403E36",
"y@	c #413E37",
"z@	c #413F38",
"A@	c #45423B",
"B@	c #46433C",
"C@	c #47443D",
"D@	c #47443E",
"E@	c #47453E",
"F@	c #48453F",
"G@	c #48453E",
"H@	c #49463F",
"I@	c #494741",
"J@	c #4D4B44",
"K@	c #4D4A43",
"L@	c #4E4C45",
"M@	c #4E4B45",
"N@	c #4F4C45",
"O@	c #504D46",
"P@	c #504E47",
"Q@	c #514E47",
"R@	c #514F48",
"S@	c #524F48",
"T@	c #525049",
"U@	c #585750",
"V@	c #58574F",
"W@	c #585850",
"X@	c #57564F",
"Y@	c #57564E",
"Z@	c #58574E",
"`@	c #57554D",
" #	c #57564D",
".#	c #56564D",
"+#	c #59574F",
"@#	c #595750",
"##	c #5D5C54",
"$#	c #5C5C54",
"%#	c #5C5B53",
"&#	c #5B5A52",
"*#	c #5D5C53",
"=#	c #5C5C53",
"-#	c #5A5A51",
";#	c #5B5B53",
">#	c #5D5B54",
",#	c #5F5E56",
"'#	c #5E5D56",
")#	c #5E5D55",
"!#	c #5D5D55",
"~#	c #5D5D54",
"{#	c #5E5E55",
"]#	c #5E5E56",
"^#	c #5F5F57",
"/#	c #616058",
"(#	c #606057",
"_#	c #5F5F56",
":#	c #616158",
"<#	c #636359",
"[#	c #626259",
"}#	c #626359",
"|#	c #626258",
"1#	c #616258",
"2#	c #616157",
"3#	c #606056",
"4#	c #636459",
"5#	c #606157",
"6#	c #626257",
"7#	c #616257",
"8#	c #626358",
"9#	c #606156",
"0#	c #5E6055",
"a#	c #5F6055",
"b#	c #5F5F55",
"c#	c #5E5F55",
"d#	c #5D5E54",
"e#	c #5C5D54",
"f#	c #5C5D53",
"g#	c #5E5E54",
"h#	c #5F5F54",
"i#	c #5E5F53",
"j#	c #5D5E53",
"k#	c #5E5F54",
"l#	c #5C5D52",
"m#	c #5D5D53",
"n#	c #5B5C52",
"o#	c #5A5B51",
"p#	c #595A50",
"q#	c #585950",
"r#	c #5A5B50",
"s#	c #5B5C51",
"t#	c #5B5C50",
"u#	c #5A5B4F",
"v#	c #5B5D51",
"w#	c #595A4F",
"x#	c #595B4F",
". + @ # $ # $ $ % % & * = - ; ; > , , - - - . . ",
"' ) ! ~ { ] ^ / ( _ _ : _ _ < [ } | 1 2 ' ' ' ) ",
"3 4 5 6 7 8 9 0 a b b b a a a a c d e f g h 3 5 ",
"i i j k l m n o p q q q r r s p o t u v w x y z ",
"A B C D E F G H I J J J J K J I L M N O P Q R S ",
"T T U V W X Y Z `  . ... . . .` Z +.@.#.$.%.&.*.",
"=.=.-.;.>.@.,.Z '.).).).!.!.).'.Z ~.{.].;.^./.(.",
"_._.:.<.[.}.|.1.2.3.3.3.3.4.4.3.5.6.7.8.9.0.a.b.",
"c.d.e.f.g.h.i.j.|.k.k.k.k.l.l.m.n.i.o.p.q.r.s.t.",
"u.v.w.x.y.z.A.k.B.C.C.C.D.D.D.E.F.G.H.I.J.K.L.L.",
"M.M.N.O.P.Q.B.R.S.T.T.T.T.T.T.U.V.W.X.Y.{.Z.`. +",
".+.+++@+{.#+$+%+&+*+*+*+=+-+-+;+>+S.,+{.'+++)+!+",
"~+{+]+^+/+(+_+:+<+[+[+[+[+[+[+<+:+}+5.|+1+2+3+4+",
"5+6+7+8+q 1.9+0+a+b+b+b+c+c+c+a+d+-+e+f+g+h+i+j+",
"k+k+l+V m+n+o+p+q+c+c+c+r+` r+s+t+u+1.v+w+x+y+z+",
"A+A+B+C+D+E+F+G+H+I+I+I+_+_+_+J+K+L+M+N+O+P+Q+R+",
"S+S+T+U+V+W+X+Y+Z+`+ @.@+@+@`+@@#@$@%@&@*@=@A+-@",
";@>@,@'@)@!@~@{@]@^@^@^@^@^@^@/@(@~@_@:@<@[@}@}@",
"|@1@1@1@2@3@4@5@6@7@8@9@0@0@8@a@b@c@d@e@{+f@f@g@",
"h@h@h@h@i@j@j@k@l@j@i@m@n@m@n@n@m@h@m@m@o@`.p@B+",
"q@r@s@t@t@M.u@u@u@u@M.M.u@v@v@w@L.x@w@L.y@z@z@z@",
"A@A@A@b.b.B@d.d.d.B@B@B@C@D@E@F@F@G@G@F@H@/./.I@",
"J@K@J@J@L@M@L@L@N@N@N@N@O@P@Q@R@Q@P@P@R@S@T@T@T@",
"U@V@V@V@W@V@X@Y@Z@Y@`@ #Y@Z@Z@ #.# #Y@+#+#@#+#U@",
"##########$#%#%#%#&#&#&#%#*#=#&#-#&#;#>#####%#%#",
",#,#,#,#,#'#)#!#~#!#)#{#{#]#{#~#~#~#{#,#,#{#!###",
"]#)#)#]#,#,#,#{#,#^#/#/#/#/#/#(#(#(#(#(#(#_#{#{#",
"(#(#(#(#(#(#(#(#:#:#<#<#<#[#[#[#}#}#}#|#1#2#3#3#",
"1#1#1#:#|#1#1#1#1#[#<#<#<#<#}#<#4#<#<#|#:#2#:#2#",
"1#1#1#1#:#:#5#5#5#:#1#|#6#2#7#8#8#|#2#3#3#9#5#3#",
"0#a#b#c#c#d#d#e#f#~#g#h#i#j#k#a#a#k#j#l#f#j#j#m#",
"f#l#l#n#n#o#p#p#q#p#r#s#t#u#t#v#v#r#w#w#x#r#r#p#"};
