#define resize_width 16
#define resize_height 16
static unsigned char resize_bits[] = {
   0xff, 0xff, 0x03, 0xf8, 0xff, 0xdf, 0x01, 0xf0, 0xff, 0xe7, 0x01, 0xac,
   0xff, 0xa9, 0x01, 0xab, 0x7f, 0xaa, 0xc3, 0xaa, 0x9b, 0xaa, 0xab, 0xaa,
   0xb3, 0xaa, 0x83, 0xaa, 0xff, 0xea, 0xff, 0xff};
