/* XPM */
static char * shade_xpm[] = {
"24 32 433 2",
"  	c None",
". 	c #9A9DA1",
"+ 	c #9B9DA2",
"@ 	c #9C9EA3",
"# 	c #9D9FA4",
"$ 	c #9DA0A4",
"% 	c #9C9FA4",
"& 	c #9DA0A3",
"* 	c #9EA1A4",
"= 	c #9C9FA3",
"- 	c #9C9FA2",
"; 	c #9C9EA2",
"> 	c #9A9CA0",
", 	c #9A9DA2",
"' 	c #989CA1",
") 	c #96999E",
"! 	c #999BA0",
"~ 	c #9C9EA4",
"{ 	c #999CA2",
"] 	c #999CA1",
"^ 	c #999C9F",
"/ 	c #9EA1A6",
"( 	c #9EA1A5",
"_ 	c #9DA0A2",
": 	c #9DA0A5",
"< 	c #9EA0A6",
"[ 	c #A4A7AC",
"} 	c #A4A6AB",
"| 	c #A5A7AC",
"1 	c #A3A6AB",
"2 	c #A2A5AA",
"3 	c #A4A5AA",
"4 	c #A2A4A9",
"5 	c #A1A4A8",
"6 	c #A3A5AA",
"7 	c #A4A6AC",
"8 	c #A2A4AA",
"9 	c #A1A3A9",
"0 	c #A1A4A9",
"a 	c #A3A6AA",
"b 	c #A9ACB1",
"c 	c #A8AAB0",
"d 	c #A8ABB0",
"e 	c #A7A9AE",
"f 	c #AAACB0",
"g 	c #AAABB1",
"h 	c #A7AAAF",
"i 	c #A9ABB1",
"j 	c #A8AAAF",
"k 	c #A7AAB0",
"l 	c #A6A9AF",
"m 	c #AAACB2",
"n 	c #A8ABB1",
"o 	c #AAADB2",
"p 	c #A8AAB1",
"q 	c #A9ABB6",
"r 	c #AEAFBF",
"s 	c #AAABBC",
"t 	c #ACADB8",
"u 	c #AAACB3",
"v 	c #A9ACB2",
"w 	c #ABADB3",
"x 	c #A8ACB0",
"y 	c #ACAEB5",
"z 	c #AEB0B7",
"A 	c #B0B2B8",
"B 	c #B0B3B9",
"C 	c #AFB1B7",
"D 	c #AEB0B6",
"E 	c #AFB1B9",
"F 	c #8D8FA5",
"G 	c #686985",
"H 	c #4F516F",
"I 	c #3F4160",
"J 	c #696B86",
"K 	c #B2B4BA",
"L 	c #B1B3B9",
"M 	c #B1B3BA",
"N 	c #B4B6BC",
"O 	c #B2B5BB",
"P 	c #B3B5BC",
"Q 	c #B4B6BD",
"R 	c #B3B6BC",
"S 	c #B3B5BB",
"T 	c #B1B2BC",
"U 	c #757791",
"V 	c #60627F",
"W 	c #82839B",
"X 	c #9A9BAF",
"Y 	c #9697AC",
"Z 	c #777892",
"` 	c #B2B5BE",
" .	c #B6B8BE",
"..	c #B8B9C0",
"+.	c #B6B8BF",
"@.	c #B6B9BF",
"#.	c #B5B7BD",
"$.	c #B8BAC0",
"%.	c #B7B9C0",
"&.	c #B7BAC0",
"*.	c #B8BBC1",
"=.	c #B8BAC1",
"-.	c #B7B8C1",
";.	c #464867",
">.	c #6D6F8A",
",.	c #A1A2B5",
"'.	c #CBCCD7",
").	c #DEDEE5",
"!.	c #E2E2E8",
"~.	c #B8B9C1",
"{.	c #BCBEC4",
"].	c #BABCC3",
"^.	c #B9BBC2",
"/.	c #B9BCC3",
"(.	c #BABDC4",
"_.	c #BBBEC5",
":.	c #BABCC2",
"<.	c #B9BAC1",
"[.	c #8C8DA4",
"}.	c #4C4E6D",
"|.	c #5C5E7B",
"1.	c #A4A6B8",
"2.	c #B9BAC8",
"3.	c #BBBCCA",
"4.	c #A3A4B6",
"5.	c #80829A",
"6.	c #BBBDC4",
"7.	c #BCBEC5",
"8.	c #BCBDC4",
"9.	c #BDBFC6",
"0.	c #B9BBC3",
"a.	c #72748E",
"b.	c #626480",
"c.	c #7A7B95",
"d.	c #83859D",
"e.	c #4E506E",
"f.	c #BEBFC8",
"g.	c #C1C3CA",
"h.	c #C2C3CB",
"i.	c #C0C2C9",
"j.	c #BFC2C9",
"k.	c #B1B3C0",
"l.	c #515371",
"m.	c #555775",
"n.	c #5B5D7A",
"o.	c #5E5F7C",
"p.	c #6A6C87",
"q.	c #74758F",
"r.	c #575976",
"s.	c #545674",
"t.	c #B2B4C1",
"u.	c #C3C6CC",
"v.	c #C4C6CE",
"w.	c #C1C4CA",
"x.	c #BFC1C9",
"y.	c #C6C8D1",
"z.	c #C7C8D1",
"A.	c #C8C9D2",
"B.	c #ACADBD",
"C.	c #454766",
"D.	c #30313F",
"E.	c #353643",
"F.	c #3B3C49",
"G.	c #3E3F4B",
"H.	c #41424E",
"I.	c #3F404C",
"J.	c #313240",
"K.	c #595B79",
"L.	c #ACADBE",
"M.	c #CACCD4",
"N.	c #CCCED6",
"O.	c #CACBD4",
"P.	c #C8CAD3",
"Q.	c #CACCD6",
"R.	c #CCCDD6",
"S.	c #4A4C6A",
"T.	c #383946",
"U.	c #3D3D4A",
"V.	c #42434F",
"W.	c #464752",
"X.	c #4B4B56",
"Y.	c #494A54",
"Z.	c #454651",
"`.	c #494B69",
" +	c #CACBD2",
".+	c #CBCCD3",
"++	c #C9CBD1",
"@+	c #C9CBD2",
"#+	c #CBCCD2",
"$+	c #CCCCD3",
"%+	c #B8B9C5",
"&+	c #5F617D",
"*+	c #7B7D96",
"=+	c #8A8CA2",
"-+	c #9FA0B3",
";+	c #A6A7B9",
">+	c #636581",
",+	c #BBBCC8",
"'+	c #CFD0D6",
")+	c #D0D1D7",
"!+	c #CECFD6",
"~+	c #CCCED5",
"{+	c #D1D3DA",
"]+	c #D2D3DB",
"^+	c #CACCD5",
"/+	c #7F8099",
"(+	c #B0B1C1",
"_+	c #B1B3C2",
":+	c #85879E",
"<+	c #CFD0D9",
"[+	c #D5D5DC",
"}+	c #D3D4DA",
"|+	c #D6D6DC",
"1+	c #D2D4DB",
"2+	c #D1D2DA",
"3+	c #D5D6DF",
"4+	c #D6D6E0",
"5+	c #D5D5DE",
"6+	c #9B9DB0",
"7+	c #B3B4C4",
"8+	c #A8A9BB",
"9+	c #D7D8E0",
"0+	c #D8D9E1",
"a+	c #D8D9E0",
"b+	c #D8DBE1",
"c+	c #D6D8E0",
"d+	c #D4D5DE",
"e+	c #D8DAE2",
"f+	c #D8D8E2",
"g+	c #D5D6E0",
"h+	c #D4D4DE",
"i+	c #9394A9",
"j+	c #B5B6C5",
"k+	c #C1C2CF",
"l+	c #D7D8E1",
"m+	c #DADCE5",
"n+	c #DCDCE4",
"o+	c #DCDDE5",
"p+	c #DADCE4",
"q+	c #DADCE3",
"r+	c #DADBE4",
"s+	c #D6D7E0",
"t+	c #D2D4DD",
"u+	c #D3D5DE",
"v+	c #D0D1DB",
"w+	c #70728D",
"x+	c #7D7F97",
"y+	c #CDCFD8",
"z+	c #D1D3DB",
"A+	c #CFD1D9",
"B+	c #D0D2DA",
"C+	c #CECFD7",
"D+	c #CECFD8",
"E+	c #C5C6D1",
"F+	c #C4C6D2",
"G+	c #C6C8D3",
"H+	c #C6C7D3",
"I+	c #C4C5D1",
"J+	c #C3C4D0",
"K+	c #C5C5D1",
"L+	c #BFC0CD",
"M+	c #6C6E89",
"N+	c #787A93",
"O+	c #C8C9D4",
"P+	c #C7C9D3",
"Q+	c #C9C9D3",
"R+	c #C7C8D2",
"S+	c #CACAD4",
"T+	c #C9C8D2",
"U+	c #C8C7D0",
"V+	c #C7C7D1",
"W+	c #C7C7D0",
"X+	c #C7C6D0",
"Y+	c #C5C5CF",
"Z+	c #C5C6D0",
"`+	c #CBCCD5",
" @	c #D6D7DF",
".@	c #CBCCD6",
"+@	c #C6C6CF",
"@@	c #C6C6D0",
"#@	c #C5C4CE",
"$@	c #C6C8D0",
"%@	c #C4C5CE",
"&@	c #C0C2CA",
"*@	c #BFC0C9",
"=@	c #BEC1C9",
"-@	c #C0C1C9",
";@	c #BDC0C8",
">@	c #BDC0C6",
",@	c #BEC1C8",
"'@	c #BFC1C8",
")@	c #BFC2CA",
"!@	c #C0C3CA",
"~@	c #BFC3C9",
"{@	c #BDC1C8",
"]@	c #BEC1C7",
"^@	c #C0C5C9",
"/@	c #BFC3C8",
"(@	c #BEC3C7",
"_@	c #BFC2C7",
":@	c #BDC1C6",
"<@	c #BCC0C5",
"[@	c #BBBFC4",
"}@	c #BBBEC3",
"|@	c #B8BCC1",
"1@	c #B8BBC0",
"2@	c #B9BDC2",
"3@	c #B9BCC2",
"4@	c #B7BBC0",
"5@	c #B6BABE",
"6@	c #B5B8BE",
"7@	c #B0B1B8",
"8@	c #B0B3BA",
"9@	c #B2B4BC",
"0@	c #B0B2B9",
"a@	c #B0B2BA",
"b@	c #AEB1B8",
"c@	c #AEB2BA",
"d@	c #AFB1B8",
"e@	c #ADAFB6",
"f@	c #AEAFB7",
"g@	c #AFB2B9",
"h@	c #AEB0B8",
"i@	c #ADAFB7",
"j@	c #ADAEB5",
"k@	c #A6A7B0",
"l@	c #A7A8B1",
"m@	c #A5A5AF",
"n@	c #A5A6AF",
"o@	c #A6A7AF",
"p@	c #A7A8B0",
"q@	c #A5A6AE",
"r@	c #A4A5AE",
"s@	c #A4A6AF",
"t@	c #A6A8B0",
"u@	c #A5A7B0",
"v@	c #A3A4AE",
"w@	c #A2A3AD",
"x@	c #A3A5AE",
"y@	c #A4A4AD",
"z@	c #A5A5AE",
"A@	c #A3A4AD",
"B@	c #A2A4AD",
"C@	c #A3A5AD",
"D@	c #9E9EA5",
"E@	c #9D9EA6",
"F@	c #9D9DA5",
"G@	c #9E9EA6",
"H@	c #9F9FA7",
"I@	c #A1A1A9",
"J@	c #A1A1AA",
"K@	c #A2A1AB",
"L@	c #A5A3AD",
"M@	c #A5A4AD",
"N@	c #A4A3AC",
"O@	c #A3A2AC",
"P@	c #A5A4AE",
"Q@	c #A7A6B0",
"R@	c #A8A7B1",
"S@	c #A8A6B0",
"T@	c #A1A2A9",
"U@	c #A2A4AB",
"V@	c #A2A3AA",
"W@	c #A4A5AC",
"X@	c #A3A4AB",
"Y@	c #A3A5AC",
"Z@	c #A1A3AB",
"`@	c #A1A3AA",
" #	c #A0A2A9",
".#	c #A2A3AB",
"+#	c #A1A2AA",
"@#	c #A2A2AA",
"##	c #A3A4AC",
"$#	c #A0A1A9",
"%#	c #9E9FA7",
"&#	c #9C9DA5",
"*#	c #9C9CA5",
"=#	c #9E9EA7",
"-#	c #9D9DA6",
";#	c #9D9EA7",
">#	c #9E9EA8",
",#	c #9C9CA6",
"'#	c #9D9DA7",
")#	c #9E9DA7",
"!#	c #9F9FA9",
"~#	c #A0A0AA",
"{#	c #9F9EA7",
"]#	c #9F9FA8",
"^#	c #A09FA8",
"/#	c #9E9DA8",
"(#	c #A0A0A9",
"_#	c #9C9BA5",
":#	c #9C9DA6",
"<#	c #9D9CA6",
"[#	c #A09FA9",
"}#	c #9E9DA6",
"|#	c #9B9BA5",
"1#	c #9B9AA5",
"2#	c #9D9CA8",
"3#	c #9B9AA4",
"4#	c #9B9BA6",
"5#	c #A09FAA",
"6#	c #9F9EA8",
"7#	c #9F9EA9",
"8#	c #A1A0AB",
"9#	c #A2A0AA",
"0#	c #A2A2AC",
"a#	c #A0A0AB",
"b#	c #A1A1AC",
"c#	c #A09EAA",
"d#	c #A19FAA",
"e#	c #A2A1AD",
"f#	c #A3A2AD",
"g#	c #A2A1AC",
"h#	c #A3A3AD",
"i#	c #A5A3AE",
"j#	c #A5A4AF",
"k#	c #A6A5AF",
"l#	c #A7A5B0",
"m#	c #A8A6B1",
"n#	c #A9A7B2",
"o#	c #A9A8B2",
"p#	c #A9A8B1",
"q#	c #AAA8B2",
"r#	c #A5A4B0",
"s#	c #A6A6B2",
"t#	c #A8A6B3",
"u#	c #A7A5B2",
"v#	c #A4A3AE",
"w#	c #A8A6B2",
"x#	c #A8A7B2",
"y#	c #A7A6B1",
"z#	c #A7A5B1",
". . + @ # $ % & * = - ; > , ' ) ! ~ { ] ] ] > ^ ",
", + $ / ( $ @ $ * ; _ $ % : % + % < @ % % % = % ",
"[ } [ | 1 2 1 3 4 5 2 1 6 2 7 1 8 9 8 0 9 8 a [ ",
"b c d b d e f g c h c g i c c j c c c h k l h m ",
"n d b b d n o i p q r s t u i i v w n x o w y z ",
"A A B C D A E F G H I I H J F E K L A M N O P O ",
"Q R N O S T U H V W X Y W V H Z `  ...+.@.#. .$.",
"%.&.*.=.-.U ;.>.,.'.).!.'.,.>.;.U ~.{.].^./.(._.",
":.<.:.].[.}.|.W 1.2.3.3.2.4.5.|.H F 6.7.8.9.9.9.",
"7.6.6.0.a.}.b.J c.W d.W 5.Z J b.e.a.f.g.h.h.i.i.",
"g.i.j.k.l.m.n.o.p.a.q.q.a.G o.n.r.s.t.u.v.w.i.x.",
"y.z.A.B.C.n.D.E.F.G.H.H.I.F.E.J.K.C.L.M.N.O.A.P.",
"M.Q.R.r S.V T.U.V.W.X.X.Y.Z.G.T.o.`.r  +.+++ +@+",
"++#+$+%+&+b.*+=+Y -+;+;+-+Y F *+>+V ,+'+'+)+!+~+",
"{+]+{+^+/+o.d.Y ,.s (+_+s ,.Y :+|.W <+[+}+|+1+2+",
"3+4+5+2+1.V *+6+L.7+2.2.7+L.,.5.V 8+9+0+a+b+c+d+",
"0+e+f+g+h+i+o.F L.j+k+k+3.L.i+&+i+l+m+n+o+p+q+r+",
"3+s+3+t+u+v+Y w+x+X L._+6+5.a.Y y+z+A+B+B+C+D+D+",
"E+F+G+H+I+J+K+L+F U M+>.N+F J+O+O+P+O+Q+R+z.A.S+",
"T+U+V+W+V+W+X+Y+Z+`+3+ @.@+@Y+z.@@#@V+$@v.%@Y++@",
"&@x.*@=@-@&@;@>@,@'@)@!@,@,@j.j.,@,@!@~@{@]@]@'@",
"^@/@(@_@(@:@<@:@/@:@:@<@[@}@}@|@1@2@3@1@&.4@5@6@",
"7@8@9@M 0@0@M a@0@b@c@8@d@d@d@e@f@g@h@i@z h@e@j@",
"k@l@l@m@n@o@p@q@r@s@t@u@v@w@x@y@s@k@z@r@A@B@C@r@",
"D@E@F@F@G@H@I@J@K@L@M@z@N@O@P@Q@R@S@8 T@8 U@V@W@",
"W@U@X@X@X@U@U@X@Y@Y@8 Z@`@ #T@.#X@V@.#.#+#+#@###",
"$#+#+#$#$#+#I@$#+#%#&#*#=#-#-#;#>#,#'#)#)#!#~#J@",
"{#]#^#]#=#>#{#/#(#-#_#*#:#,#'#-#'#<#'#:#<#[#~#(#",
"<#<#)#;#-#'#}#<#}#*#<#,#|#,#'#_#|#,#<#,#/#;#<#'#",
"'#<#<#-#'#<#)#=#-#=#,#1#,#2#)#1#3#4#,#>#~#}#,#'#",
"5#6#7#]#6#[#8#9#(#0#~#7#a#b#8#7#c#d#e#f#g#8#g#h#",
"i#i#j#k#l#m#n#o#p#q#Q@r#s#t#u#v#r#w#x#x#y#z#Q@y#"};
